<?xml version="1.0" encoding="UTF-8" standalone="no"?>
<!-- Created with Inkscape (http://www.inkscape.org/) -->

<svg
   xmlns:dc="http://purl.org/dc/elements/1.1/"
   xmlns:cc="http://creativecommons.org/ns#"
   xmlns:rdf="http://www.w3.org/1999/02/22-rdf-syntax-ns#"
   xmlns:svg="http://www.w3.org/2000/svg"
   xmlns="http://www.w3.org/2000/svg"
   xmlns:sodipodi="http://sodipodi.sourceforge.net/DTD/sodipodi-0.dtd"
   xmlns:inkscape="http://www.inkscape.org/namespaces/inkscape"
   width="285.12781mm"
   height="135.569mm"
   viewBox="0 0 285.1278 135.569"
   version="1.1"
   id="svg8"
   inkscape:version="0.92.3 (2405546, 2018-03-11)"
   sodipodi:docname="batiment.svg">
  <title
     id="title1364">Signalétique Bâtiment</title>
  <defs
     id="defs2" />
  <sodipodi:namedview
     id="base"
     pagecolor="#ffffff"
     bordercolor="#666666"
     borderopacity="1.0"
     inkscape:pageopacity="0.0"
     inkscape:pageshadow="2"
     inkscape:zoom="0.85746305"
     inkscape:cx="242.30761"
     inkscape:cy="240.36268"
     inkscape:document-units="mm"
     inkscape:current-layer="layer1"
     showgrid="false"
     fit-margin-top="0"
     fit-margin-left="0"
     fit-margin-right="0"
     fit-margin-bottom="0"
     inkscape:window-width="1920"
     inkscape:window-height="1017"
     inkscape:window-x="-8"
     inkscape:window-y="-8"
     inkscape:window-maximized="1" />
  <metadata
     id="metadata5">
    <rdf:RDF>
      <cc:Work
         rdf:about="">
        <dc:format>image/svg+xml</dc:format>
        <dc:type
           rdf:resource="http://purl.org/dc/dcmitype/StillImage" />
        <dc:title>Signalétique Bâtiment</dc:title>
        <cc:license
           rdf:resource="http://creativecommons.org/licenses/by/4.0/" />
        <dc:creator>
          <cc:Agent>
            <dc:title>Loïc Fejoz</dc:title>
          </cc:Agent>
        </dc:creator>
        <dc:rights>
          <cc:Agent>
            <dc:title>Cesi</dc:title>
          </cc:Agent>
        </dc:rights>
        <dc:language>fr</dc:language>
        <dc:subject>
          <rdf:Bag>
            <rdf:li>labcesi</rdf:li>
            <rdf:li>signalétique</rdf:li>
            <rdf:li>label</rdf:li>
            <rdf:li>btp</rdf:li>
          </rdf:Bag>
        </dc:subject>
      </cc:Work>
      <cc:License
         rdf:about="http://creativecommons.org/licenses/by/4.0/">
        <cc:permits
           rdf:resource="http://creativecommons.org/ns#Reproduction" />
        <cc:permits
           rdf:resource="http://creativecommons.org/ns#Distribution" />
        <cc:requires
           rdf:resource="http://creativecommons.org/ns#Notice" />
        <cc:requires
           rdf:resource="http://creativecommons.org/ns#Attribution" />
        <cc:permits
           rdf:resource="http://creativecommons.org/ns#DerivativeWorks" />
      </cc:License>
    </rdf:RDF>
  </metadata>
  <g
     inkscape:label="Calque 1"
     inkscape:groupmode="layer"
     id="layer1"
     transform="translate(52.342128,22.767979)">
    <path
       style="font-style:normal;font-variant:normal;font-weight:normal;font-stretch:normal;font-size:50.79999924px;line-height:1.25;font-family:Roboto;-inkscape-font-specification:Roboto;letter-spacing:0px;word-spacing:0px;fill:none;fill-opacity:1;stroke:#e20000;stroke-width:0.75590551;stroke-miterlimit:4;stroke-dasharray:none;stroke-opacity:1"
       d="M 89.919922,-204.18359 V 0 H 83.722656 C 37.650749,0 -0.00195313,37.652702 -0.00195313,83.724609 V 223.72266 c 0,46.07192 37.65270213,83.72461 83.72460913,83.72461 H 993.16406 c 46.07194,0 83.72654,-37.65269 83.72654,-83.72461 V 83.724609 C 1076.8906,37.652702 1039.236,0 993.16406,0 H 455.83789 v -36.429688 h 10.50195 l -44.94336,-44.943359 -43.70703,44.943359 h 10.52539 V 0 H 340.83203 V -118.00781 H 221.91992 V 0 h -13.08789 v -204.18359 z m 20.841798,22.19921 h 28.16211 v 26.59961 h -28.16211 z m 49.0664,0 h 28.16211 v 26.59961 h -28.16211 z m -49.0664,38 h 28.16211 v 26.59961 h -28.16211 z m 49.0664,0 h 28.16211 v 26.59961 h -28.16211 z m -49.0664,38 h 28.16211 v 26.599614 h -28.16211 z m 49.0664,0 h 28.16211 v 26.599614 h -28.16211 z m 82.9336,0 h 28.16211 v 26.599614 h -28.16211 z m 49.0664,0 h 28.16211 v 26.599614 h -28.16211 z m -181.0664,38.000005 h 28.16211 v 26.599609 h -28.16211 z m 49.0664,0 h 28.16211 v 26.599609 h -28.16211 z m 82.9336,0 h 28.16211 v 26.599609 h -28.16211 z m 49.0664,0 h 28.16211 v 26.599609 h -28.16211 z m -181.0664,38 h 28.16211 v 26.5996094 h -28.16211 z m 49.0664,0 h 28.16211 v 26.5996094 h -28.16211 z m 82.9336,0 h 28.16211 v 26.5996094 h -28.16211 z m 49.0664,0 h 28.16211 v 26.5996094 h -28.16211 z m 107.30274,0.976563 h 12.78125 v 11.957031 h -12.78125 z m 27.21289,9.896484 h 14.01953 V 1.0917969 H 426.34375 Z M 83.722656,36.023438 H 993.16406 c 26.73954,0 47.70314,20.961695 47.70314,47.701171 V 223.72266 c 0,21.57859 -13.6557,39.3915 -32.9785,45.46679 l -1.8692,-20.32617 c -1.5,0.375 -2.75,0.625 -3.75,0.75 -0.9375,0.125 -2.2187,0.1875 -3.84372,0.1875 -2.5,0 -4.5,-0.78125 -6,-2.34375 -1.4375,-1.625 -2.15625,-4.25 -2.15625,-7.875 v -46.5 h 16.03127 v -21.9375 h -16.03127 v -25.21875 h -31.6875 v 25.21875 h -14.15625 v 21.9375 h 14.15625 v 46.6875 c 0,12.0625 2.6875,20.875 8.0625,26.4375 2.11631,2.16496 4.61652,3.90227 7.49024,5.22461 h -37.58399 v -59.88086 c 0,-14.6875 -2.8125,-25.40625 -8.4375,-32.15625 -5.5625,-6.75 -13.3125,-10.125 -23.25,-10.125 -6,0 -11.4375,1.4375 -16.3125,4.3125 -4.875,2.8125 -8.96875,6.75 -12.28125,11.8125 l -1.21875,-14.25 h -29.71875 v 100.28711 h -32.27344 c 0.19461,-0.0561 0.39185,-0.10454 0.58594,-0.16211 7.375,-2.1875 13.25,-4.875 17.625,-8.0625 l -7.59375,-19.3125 c -5.1875,2.1875 -9.8125,3.78125 -13.875,4.78125 -4,1 -9.03125,1.5 -15.09375,1.5 -6.4375,0 -11.375,-1.625 -14.8125,-4.875 -3.4375,-3.3125 -5.40625,-7.625 -5.90625,-12.9375 l 0.1875,-0.5625 h 58.125 v -16.59375 c 0,-14.25 -3.78125,-25.46875 -11.34375,-33.65625 -7.5,-8.1875 -18.09375,-12.28125 -31.78125,-12.28125 -15.5625,-0.0625 -27.46875,4.78125 -35.71875,14.53125 -8.1875,9.75 -12.28125,22.375 -12.28125,37.875 v 3.5625 c 0,14.25 4.34375,26.03125 13.03125,35.34375 4.6243,4.92157 10.18353,8.52904 16.6582,10.84961 h -43.56445 v -58.75586 c 0,-14.75 -2.84375,-25.65625 -8.53125,-32.71875 -5.625,-7.125 -13.375,-10.6875 -23.25,-10.6875 -6.5625,0 -12.3125,1.46875 -17.25,4.40625 -4.875,2.875 -8.875,6.96875 -12,12.28125 -2.3125,-5.625 -5.75,-9.8125 -10.3125,-12.5625 -4.5625,-2.75 -10,-4.125 -16.3125,-4.125 -6.25,0 -11.8125,1.34375 -16.6875,4.03125 -4.8125,2.625 -8.8125,6.375 -12,11.25 l -1.125,-13.40625 h -29.8125 v 100.28711 h -19.3125 V 171.14453 H 528.92578 V 271.43164 H 513.8457 l -2.07617,-22.56836 c -1.5,0.375 -2.75,0.625 -3.75,0.75 -0.9375,0.125 -2.21875,0.1875 -3.84375,0.1875 -2.5,0 -4.5,-0.78125 -6,-2.34375 -1.4375,-1.625 -2.15625,-4.25 -2.15625,-7.875 v -46.5 h 16.03125 v -21.9375 h -16.03125 v -25.21875 h -31.6875 v 25.21875 h -14.15625 v 21.9375 h 14.15625 v 46.6875 c 0,12.0625 2.6875,20.875 8.0625,26.4375 2.11631,2.16496 4.61652,3.90227 7.49024,5.22461 h -32.75782 c -1.59568,-4.24151 -2.8414,-8.48309 -3.70117,-12.72461 -0.875,-4.625 -1.3125,-9.625 -1.3125,-15 v -38.25 c 0,-11.625 -3.90625,-20.5625 -11.71875,-26.8125 -7.75,-6.25 -17.90625,-9.375 -30.46875,-9.375 -13.375,0 -24.15625,3.125 -32.34375,9.375 -8.125,6.1875 -11.96875,13.90625 -11.53125,23.15625 l 0.1875,0.5625 30.75,0.0937 c 0,-3.625 0.875,-6.28125 2.625,-7.96875 1.8125,-1.75 4.5625,-2.625 8.25,-2.625 4.25,0 7.40625,1.15625 9.46875,3.46875 2.0625,2.3125 3.09375,5.625 3.09375,9.9375 v 7.21875 h -13.03125 c -15.375,0 -26.84375,2.75 -34.40625,8.25 -7.5625,5.4375 -11.34375,13.1875 -11.34375,23.25 0,9.4375 2.9375,16.90625 8.8125,22.40625 2.26706,2.07615 4.87964,3.75368 7.83008,5.03711 h -63.93945 c 9.38638,-1.51582 17.06489,-4.53249 23.01562,-9.06836 8.9375,-6.8125 13.40625,-16.875 13.40625,-30.1875 0,-7.1875 -1.96875,-13.53125 -5.90625,-19.03125 -3.875,-5.5 -9.875,-9.125 -18,-10.875 6.375,-2.5625 11.0625,-6.34375 14.0625,-11.34375 3,-5.0625 4.5,-10.84375 4.5,-17.34375 0,-12.4375 -4.75,-21.78125 -14.25,-28.03125 -9.4375,-6.3125 -22.625,-9.46875 -39.5625,-9.46875 H 236.89453 V 271.43164 H 83.722656 c -26.739477,0 -47.701168,-20.96948 -47.701172,-47.70898 V 83.724609 c 0,-26.739476 20.961695,-47.701174 47.701172,-47.701171 z M 528.92578,126.33203 v 21.28125 h 31.78125 v -21.28125 z m -138.5625,2.71875 -28.125,22.5 v 2.4375 h 24.375 l 12.75,-11.8125 12.84375,11.8125 h 24.84375 v -2.0625 l -28.59375,-22.875 z m -121.78125,31.40625 h 13.03125 c 7.5,0 13.0625,1.34375 16.6875,4.03125 3.625,2.625 5.4375,6.84375 5.4375,12.65625 0,5.25 -1.875,9.21875 -5.625,11.90625 -3.75,2.625 -9.4375,3.9375 -17.0625,3.9375 h -12.46875 z m 356.90625,33.1875 c 4.1875,0 7.28125,1.34375 9.28125,4.03125 2,2.6875 3,7.6875 3,15 v 58.75586 h -26.0625 v -71.59961 c 1.625,-1.9375 3.59375,-3.4375 5.90625,-4.5 2.375,-1.125 5,-1.6875 7.875,-1.6875 z m 57.84375,0 c 4.0625,0 7.09375,1.375 9.09375,4.125 2.0625,2.6875 3.09375,7.65625 3.09375,14.90625 v 58.75586 h -26.0625 v -66.53711 c 0,-0.75 -0.0312,-1.5 -0.0937,-2.25 -0.0625,-0.8125 -0.0937,-1.75 -0.0937,-2.8125 1.625,-1.9375 3.59375,-3.4375 5.90625,-4.5 2.375,-1.125 5.09375,-1.6875 8.15625,-1.6875 z m 105.84375,0 c 4.4375,0 7.5625,1.34375 9.375,4.03125 1.875,2.6875 2.8125,6.65625 2.8125,11.90625 v 2.4375 h -27.375 l -0.1875,-0.46875 c 0.375,-5.5 1.75,-9.84375 4.125,-13.03125 2.4375,-3.25 6.1875,-4.875 11.25,-4.875 z m 103.59375,0 c 3.9375,0 6.9375,1.375 9,4.125 2.0625,2.6875 3.09375,7.25 3.09375,13.6875 v 59.97461 h -27.9375 v -70.94336 c 1.8125,-2.1875 4.0625,-3.875 6.75,-5.0625 2.6875,-1.1875 5.71875,-1.78125 9.09375,-1.78125 z m -624.1875,20.34375 h 20.4375 1.03125 c 6.8125,0.1875 11.6875,1.78125 14.625,4.78125 3,3 4.5,7.40625 4.5,13.21875 0,5.5 -1.6875,9.59375 -5.0625,12.28125 -3.375,2.625 -8.4375,3.9375 -15.1875,3.9375 h -20.34375 z m 129.09375,15.375 h 12.75 v 13.40625 c -1.1875,2.5 -3.28125,4.65625 -6.28125,6.46875 -2.9375,1.8125 -6.34375,2.71875 -10.21875,2.71875 -3.125,0 -5.6875,-0.875 -7.6875,-2.625 -1.9375,-1.8125 -2.90625,-4.15625 -2.90625,-7.03125 0,-3.75 1.125,-6.84375 3.375,-9.28125 2.25,-2.4375 5.90625,-3.65625 10.96875,-3.65625 z m 13.59375,27.46875 c 0.4375,2.9375 1.0625,5.75 1.875,8.4375 0.73462,2.25633 1.58613,4.30227 2.54102,6.16211 h -17.12696 c 0.87331,-0.49967 1.71361,-1.04167 2.49219,-1.66211 4.0625,-3.25 7.46875,-7.5625 10.21875,-12.9375 z"
       transform="matrix(0.26458333,0,0,0.26458333,-52.241611,31.355595)"
       id="text817"
       inkscape:connector-curvature="0" />
  </g>
</svg>
