<?xml version="1.0" encoding="UTF-8" standalone="no"?>
<!-- Created with Inkscape (http://www.inkscape.org/) -->

<svg
   xmlns:dc="http://purl.org/dc/elements/1.1/"
   xmlns:cc="http://creativecommons.org/ns#"
   xmlns:rdf="http://www.w3.org/1999/02/22-rdf-syntax-ns#"
   xmlns:svg="http://www.w3.org/2000/svg"
   xmlns="http://www.w3.org/2000/svg"
   xmlns:sodipodi="http://sodipodi.sourceforge.net/DTD/sodipodi-0.dtd"
   xmlns:inkscape="http://www.inkscape.org/namespaces/inkscape"
   width="359.77441mm"
   height="438.40881mm"
   viewBox="0 0 359.77443 438.40882"
   version="1.1"
   id="svg8"
   inkscape:version="0.92.3 (2405546, 2018-03-11)"
   sodipodi:docname="inspiration-laser.svg">
  <defs
     id="defs2" />
  <sodipodi:namedview
     id="base"
     pagecolor="#ffffff"
     bordercolor="#666666"
     borderopacity="1.0"
     inkscape:pageopacity="0.0"
     inkscape:pageshadow="2"
     inkscape:zoom="0.60714612"
     inkscape:cx="849.69406"
     inkscape:cy="399.63013"
     inkscape:document-units="mm"
     inkscape:current-layer="layer1"
     showgrid="false"
     fit-margin-top="0"
     fit-margin-left="0"
     fit-margin-right="0"
     fit-margin-bottom="0"
     inkscape:window-width="1920"
     inkscape:window-height="1017"
     inkscape:window-x="-8"
     inkscape:window-y="-8"
     inkscape:window-maximized="1" />
  <metadata
     id="metadata5">
    <rdf:RDF>
      <cc:Work
         rdf:about="">
        <dc:format>image/svg+xml</dc:format>
        <dc:type
           rdf:resource="http://purl.org/dc/dcmitype/StillImage" />
        <dc:title></dc:title>
        <cc:license
           rdf:resource="http://creativecommons.org/licenses/by/4.0/" />
        <dc:creator>
          <cc:Agent>
            <dc:title>Loïc Fejoz</dc:title>
          </cc:Agent>
        </dc:creator>
        <dc:rights>
          <cc:Agent>
            <dc:title>Cesi</dc:title>
          </cc:Agent>
        </dc:rights>
        <dc:subject>
          <rdf:Bag>
            <rdf:li>labcesi</rdf:li>
            <rdf:li>signalétique</rdf:li>
            <rdf:li>label</rdf:li>
            <rdf:li>fablab</rdf:li>
          </rdf:Bag>
        </dc:subject>
      </cc:Work>
      <cc:License
         rdf:about="http://creativecommons.org/licenses/by/4.0/">
        <cc:permits
           rdf:resource="http://creativecommons.org/ns#Reproduction" />
        <cc:permits
           rdf:resource="http://creativecommons.org/ns#Distribution" />
        <cc:requires
           rdf:resource="http://creativecommons.org/ns#Notice" />
        <cc:requires
           rdf:resource="http://creativecommons.org/ns#Attribution" />
        <cc:permits
           rdf:resource="http://creativecommons.org/ns#DerivativeWorks" />
      </cc:License>
    </rdf:RDF>
  </metadata>
  <g
     inkscape:label="découpe"
     inkscape:groupmode="layer"
     id="layer1"
     transform="translate(99.087242,51.466861)"
     style="display:inline">
    <g
       id="g829">
      <path
         inkscape:connector-curvature="0"
         id="rect837"
         transform="matrix(0.26458333,0,0,0.26458333,-41.742411,-61.46702)"
         d="m 113.51367,38.173828 c -41.410395,0 -75.339842,33.929447 -75.339842,75.339842 v 206.2793 c 0,41.4104 33.929447,75.33984 75.339842,75.33984 h 364.15821 v 4.84375 h 31.6875 v -4.84375 h 121.2207 C 649.7452,474.943 717.44841,526.80751 819.65039,558.80859 775.18031,508.18103 733.5282,456.94085 740.48828,395.13281 H 846.4082 c 41.41043,0 75.33985,-33.92944 75.33985,-75.33984 v -206.2793 c 0,-41.410395 -33.92942,-75.339841 -75.33985,-75.339842 z m 0,37.794922 H 846.4082 c 21.12559,0 37.54492,16.419355 37.54492,37.54492 v 206.2793 c 0,21.12557 -16.41933,37.54297 -37.54492,37.54297 h -10.04882 v -63.20313 c 1.12499,-2.4375 2.84375,-4.3125 5.15624,-5.625 2.3125,-1.375 5.28126,-2.0625 8.90626,-2.0625 l 10.3125,0.0937 3,-27.75 c -1.25,-0.375 -2.43751,-0.65625 -3.5625,-0.84375 -1.125,-0.1875 -2.40626,-0.28125 -3.84376,-0.28125 -4.68749,0 -8.78125,1.46875 -12.28124,4.40625 -3.5,2.9375 -6.31251,7.0625 -8.4375,12.375 l -1.125,-14.90625 h -29.8125 v 97.79688 h -25.47071 c 4.2848,-1.68823 7.91089,-3.59616 10.84571,-5.73438 l -7.59376,-19.3125 c -5.18749,2.1875 -9.8125,3.78125 -13.875,4.78125 -3.99999,1 -9.03125,1.5 -15.09374,1.5 -6.4375,0 -11.37501,-1.625 -14.8125,-4.875 -3.4375,-3.3125 -5.40626,-7.625 -5.90626,-12.9375 l 0.1875,-0.5625 h 58.125 v -16.59375 c 0,-14.25 -3.78125,-25.46875 -11.34374,-33.65625 -7.5,-8.1875 -18.09376,-12.28125 -31.78126,-12.28125 -15.56249,-0.0625 -27.46875,4.78125 -35.71874,14.53125 -8.1875,9.75 -12.28126,22.375 -12.28126,37.875 v 3.5625 c 0,14.25 4.34376,26.03125 13.03126,35.34375 3.20779,3.41402 6.86469,6.19696 10.96289,8.35938 h -54.08789 v -63.20313 c 1.12499,-2.4375 2.84375,-4.3125 5.15624,-5.625 2.3125,-1.375 5.28126,-2.0625 8.90626,-2.0625 l 10.3125,0.0937 3,-27.75 c -1.25,-0.375 -2.43751,-0.65625 -3.5625,-0.84375 -1.125,-0.1875 -2.40626,-0.28125 -3.84376,-0.28125 -4.68749,0 -8.78125,1.46875 -12.28124,4.40625 -3.5,2.9375 -6.31251,7.0625 -8.4375,12.375 l -1.125,-14.90625 h -29.8125 v 97.79688 h -19.3125 v -97.79688 h -31.78126 v 97.79688 h -34.37304 c 3.23139,-2.12318 6.09959,-4.84139 8.5918,-8.17188 6.87499,-9.25 10.3125,-21.5 10.3125,-36.75 v -1.96875 c 0,-15.8125 -3.46876,-28.5625 -10.40626,-38.25 -6.87499,-9.6875 -16.59375,-14.53125 -29.15624,-14.53125 -5.0625,0 -9.56251,1.125 -13.5,3.375 -3.875,2.25 -7.21876,5.4375 -10.03126,9.5625 l -0.9375,-11.0625 h -29.90624 v 97.79688 h -32.32227 c 1.84854,-0.94898 3.59539,-2.0131 5.22851,-3.20313 8.125,-5.9375 12.18751,-13.46875 12.1875,-22.59375 0,-8.875 -2.96875,-15.71875 -8.90624,-20.53125 -5.9375,-4.875 -15.12501,-8.53125 -27.5625,-10.96875 -7.875,-1.5 -13.12501,-3.1875 -15.75,-5.0625 -2.5625,-1.875 -3.84375,-4.15625 -3.84376,-6.84375 0,-2.8125 1.12501,-5.125 3.375,-6.9375 2.25,-1.8125 5.03126,-2.71875 8.34376,-2.71875 4.56249,0 7.84375,1.03125 9.84374,3.09375 2,2.0625 3.00001,5.09375 3,9.09375 h 30.75 l 0.1875,-0.5625 c 0.375,-9.5625 -3.4375,-17.34375 -11.4375,-23.34375 -7.99999,-6.0625 -18.75,-9.09375 -32.25,-9.09375 -12.81249,0 -22.96875,3.125 -30.46874,9.375 -7.5,6.1875 -11.25,13.75 -11.25,22.6875 0,8.5 3,15.1875 9,20.0625 5.99999,4.8125 14.90625,8.375 26.71874,10.6875 7.5,1.5625 12.65626,3.34375 15.46876,5.34375 2.87499,1.9375 4.3125,4.15625 4.3125,6.65625 0,3.0625 -1.09376,5.4375 -3.28126,7.125 -2.18749,1.625 -5.40625,2.4375 -9.65624,2.4375 -5.125,0 -9.09376,-1.0625 -11.90626,-3.1875 -2.74999,-2.125 -4.1875,-5.59375 -4.3125,-10.40625 h -28.6875 l -0.1875,0.5625 c -0.37499,8.625 3.43751,16.4375 11.4375,23.4375 2.17405,1.88755 4.56412,3.51206 7.15626,4.89063 h -30.78126 v -57.39063 c 0,-14.6875 -2.8125,-25.40625 -8.4375,-32.15625 -5.56249,-6.75 -13.3125,-10.125 -23.25,-10.125 -5.99999,0 -11.4375,1.4375 -16.3125,4.3125 -4.87499,2.8125 -8.96875,6.75 -12.28124,11.8125 l -1.21876,-14.25 h -29.71874 v 97.79688 h -21.375 V 224.47656 H 217.89062 V 357.33594 H 113.51367 c -21.125565,0 -37.54492,-16.4174 -37.54492,-37.54297 v -206.2793 c 0,-21.125565 16.419355,-37.54492 37.54492,-37.54492 z m 204.78321,206.07031 c 3.93749,0 6.9375,1.375 9,4.125 2.06249,2.6875 3.09374,7.25 3.09374,13.6875 v 57.48438 h -27.9375 v -68.45313 c 1.8125,-2.1875 4.06251,-3.875 6.75,-5.0625 2.6875,-1.1875 5.71876,-1.78125 9.09376,-1.78125 z m 205.96874,0 c 5.5,0 9.50001,2.59375 12,7.78125 2.5,5.1875 3.75,12.0625 3.75,20.625 v 1.96875 c 0,8.25 -1.21875,14.6875 -3.65624,19.3125 -2.375,4.5625 -6.34376,6.84375 -11.90626,6.84375 -3.62499,0 -6.6875,-0.53125 -9.1875,-1.59375 -2.43749,-1.0625 -4.40625,-2.6875 -5.90624,-4.875 v -42.375 c 1.43749,-2.5 3.375,-4.40625 5.8125,-5.71875 2.49999,-1.3125 5.53125,-1.96875 9.09374,-1.96875 z m 223.6875,0 c 4.4375,0 7.56251,1.34375 9.375,4.03125 1.875,2.6875 2.81251,6.65625 2.8125,11.90625 v 2.4375 h -27.375 l -0.1875,-0.46875 c 0.375,-5.5 1.75001,-9.84375 4.125,-13.03125 2.4375,-3.25 6.18751,-4.875 11.25,-4.875 z m -238.59374,69.9375 c 1.63877,2.07579 3.44135,3.85652 5.39843,5.35938 h -5.39843 z"
         style="color:#000000;font-style:normal;font-variant:normal;font-weight:normal;font-stretch:normal;font-size:medium;line-height:normal;font-family:sans-serif;font-variant-ligatures:normal;font-variant-position:normal;font-variant-caps:normal;font-variant-numeric:normal;font-variant-alternates:normal;font-feature-settings:normal;text-indent:0;text-align:start;text-decoration:none;text-decoration-line:none;text-decoration-style:solid;text-decoration-color:#000000;letter-spacing:normal;word-spacing:normal;text-transform:none;writing-mode:lr-tb;direction:ltr;text-orientation:mixed;dominant-baseline:auto;baseline-shift:baseline;text-anchor:start;white-space:normal;shape-padding:0;clip-rule:nonzero;display:inline;overflow:visible;visibility:visible;opacity:1;isolation:auto;mix-blend-mode:normal;color-interpolation:sRGB;color-interpolation-filters:linearRGB;solid-color:#000000;solid-opacity:1;vector-effect:none;fill:none;fill-opacity:1;fill-rule:nonzero;stroke:#ff0000;stroke-width:0.75590551;stroke-linecap:butt;stroke-linejoin:miter;stroke-miterlimit:4;stroke-dasharray:none;stroke-dashoffset:0;stroke-opacity:1;color-rendering:auto;image-rendering:auto;shape-rendering:auto;text-rendering:auto;enable-background:accumulate" />
    </g>
    <g
       id="g826">
      <path
         inkscape:connector-curvature="0"
         id="text861"
         d="m -11.927957,90.455223 c -13.50863,0 -24.53907,11.031987 -24.53907,24.540617 v 49.81298 c 0,13.50864 11.03044,24.54062 24.53907,24.54062 h 62.01431 c -5.13347,13.08318 -13.66744,21.06565 -21.1243,30.66376 19.68177,-10.22123 42.7315,-20.44254 52.30534,-30.66376 h 31.740177 c 1.30686,0.58695 2.67077,1.05978 4.09329,1.41541 1.52136,0.38034 2.97656,0.57051 4.36563,0.57051 3.49913,0 6.37464,-0.66313 8.62945,-1.98592 h 53.37658 c 13.50863,0 24.53907,-11.03198 24.53907,-24.54062 v -49.81298 c 0,-13.50863 -11.03044,-24.540617 -24.53907,-24.540617 z m 0,9.999907 H 183.47252 c 8.1416,0 14.53917,6.39911 14.53917,14.54071 v 49.81298 c 0,8.14161 -6.39757,14.54071 -14.53917,14.54071 h -8.57674 v -16.53956 c 0.29766,-0.64492 0.75241,-1.14101 1.36426,-1.48828 0.61185,-0.3638 1.39733,-0.5457 2.35645,-0.5457 l 2.72851,0.0248 0.79375,-7.34219 c -0.33073,-0.0992 -0.64492,-0.17363 -0.94258,-0.22324 -0.29765,-0.0496 -0.63665,-0.0744 -1.01699,-0.0744 -1.24023,0 -2.32337,0.3886 -3.24941,1.16582 -0.92604,0.77721 -1.67018,1.86862 -2.23242,3.27422 l -0.29766,-3.94395 h -7.88789 v 25.69248 h -6.29264 c 0.94019,-0.4006 1.75073,-0.84441 2.42311,-1.33429 l -2.00918,-5.10976 c -1.37253,0.57877 -2.59623,1.00046 -3.6711,1.26504 -1.05833,0.26458 -2.38951,0.39687 -3.99355,0.39687 -1.70326,0 -3.00964,-0.42995 -3.91914,-1.28984 -0.90951,-0.87643 -1.4304,-2.01745 -1.5627,-3.42305 l 0.0496,-0.14883 h 15.37891 v -4.39042 c 0,-3.77032 -1.00046,-6.73861 -3.00137,-8.90489 -1.98437,-2.16627 -4.7873,-3.24941 -8.40879,-3.24941 -4.11757,-0.0165 -7.26777,1.26504 -9.45058,3.84472 -2.16628,2.57969 -3.24942,5.92006 -3.24942,10.0211 v 0.94258 c 0,3.77031 1.14929,6.88743 3.44786,9.35136 0.76149,0.81045 1.61976,1.48495 2.5709,2.02882 h -9.71464 v -25.69249 h -7.3918 l -0.5457,3.34863 c -0.77722,-1.22369 -1.70326,-2.16627 -2.77813,-2.82773 -1.07487,-0.67799 -2.3151,-1.01699 -3.7207,-1.01699 -3.32383,0 -5.90352,1.28157 -7.73907,3.84472 -1.81901,2.56315 -2.72851,5.93659 -2.72851,10.12032 v 0.52089 c 0,4.01837 0.9095,7.25124 2.72851,9.69864 0.59416,0.7994 1.26917,1.46572 2.0221,2.00401 h -7.22074 c -0.28012,-0.84163 -0.50947,-1.68328 -0.68007,-2.52491 -0.23151,-1.2237 -0.34726,-2.54662 -0.34726,-3.96875 v -10.12031 c 0,-3.07578 -1.03353,-5.4405 -3.10059,-7.09414 -2.05052,-1.65365 -4.737687,-2.48047 -8.061517,-2.48047 -3.5388,0 -6.39134,0.82682 -8.55762,2.48047 -2.14974,1.63711 -3.16673,3.67936 -3.05097,6.12675 l 0.0496,0.14883 8.13594,0.0248 c 0,-0.95911 0.23151,-1.66191 0.69453,-2.10839 0.47956,-0.46303 1.20717,-0.69454 2.18282,-0.69454 1.12448,0 1.95957,0.30593 2.50527,0.91778 0.5457,0.61185 0.81855,1.48828 0.81855,2.62929 v 1.90996 h -3.44785 c -4.06797,0 -7.10241,0.72761 -9.10332,2.18282 -2.00091,1.43867 -3.00136,3.48919 -3.00136,6.15156 0,2.497 0.77721,4.47311 2.33164,5.92832 0.1903,0.17428 0.38991,0.33776 0.59841,0.49093 h -5.03794 l -0.4718,-5.12941 c -0.39688,0.0992 -0.72761,0.16537 -0.99219,0.19844 -0.24805,0.0331 -0.58704,0.0496 -1.01699,0.0496 -0.66146,0 -1.19063,-0.20671 -1.5875,-0.62012 -0.38034,-0.42994 -0.57051,-1.12447 -0.57051,-2.08359 v -12.30313 h 4.2416 v -5.80429 h -4.2416 v -6.67246 h -8.38398 v 6.67246 h -3.74551 v 5.80429 h 3.74551 v 12.35274 c 0,3.19154 0.71106,5.52318 2.1332,6.99492 0.18885,0.1932 0.38987,0.37271 0.60151,0.54054 h -13.94643 v -16.53956 c 0.29765,-0.64492 0.75241,-1.14101 1.36426,-1.48828 0.61184,-0.3638 1.39733,-0.5457 2.35644,-0.5457 l 2.72852,0.0248 0.79375,-7.34219 c -0.33073,-0.0992 -0.64493,-0.17363 -0.94258,-0.22324 -0.29766,-0.0496 -0.63666,-0.0744 -1.01699,-0.0744 -1.24024,0 -2.32338,0.3886 -3.24942,1.16582 -0.92604,0.77721 -1.67018,1.86862 -2.23242,3.27422 l -0.29766,-3.94395 h -7.88789 v 25.69248 h -3.61115 c -0.28011,-0.84163 -0.50946,-1.68328 -0.68006,-2.52491 -0.23151,-1.2237 -0.34726,-2.54662 -0.34726,-3.96875 v -10.12031 c 0,-3.07578 -1.03353,-5.4405 -3.10059,-7.09414 -2.05052,-1.65365 -4.73769,-2.48047 -8.06152,-2.48047 -3.53881,0 -6.39135,0.82682 -8.55762,2.48047 -2.14974,1.63711 -3.16673,3.67936 -3.05098,6.12675 l 0.0496,0.14883 8.13594,0.0248 c 0,-0.95911 0.23151,-1.66191 0.69453,-2.10839 0.47956,-0.46303 1.20716,-0.69454 2.18281,-0.69454 1.12448,0 1.95957,0.30593 2.50528,0.91778 0.5457,0.61185 0.81855,1.48828 0.81855,2.62929 v 1.90996 h -3.44785 c -4.06797,0 -7.10241,0.72761 -9.10332,2.18282 -2.00091,1.43867 -3.00137,3.48919 -3.00137,6.15156 0,2.49701 0.77721,4.47311 2.33164,5.92832 0.1903,0.17428 0.38991,0.33776 0.59842,0.49093 h -24.60936 v -11.23136 h 5.40743 c 4.28294,0 7.68118,-1.08314 10.19472,-3.24941 2.51354,-2.18282 3.77031,-5.05189 3.77031,-8.60723 0,-3.55534 -1.25677,-6.42441 -3.77031,-8.60723 -2.51354,-2.18281 -5.91178,-3.27422 -10.19472,-3.27422 h -13.79141 v 34.96945 h -1.33429 c -8.1416,0 -14.53864,-6.3991 -14.53864,-14.54071 v -49.81298 c 0,-8.1416 6.39704,-14.54071 14.53864,-14.54071 z m 9.71827,50.37418 h 5.40743 c 1.83554,0 3.2246,0.51263 4.16718,1.53789 0.95912,1.02526 1.43867,2.33991 1.43867,3.94394 0,1.57097 -0.47955,2.86081 -1.43867,3.86953 -0.95911,0.99219 -2.34817,1.48829 -4.16718,1.48829 h -5.40743 z m 125.015627,8.78086 c 0.89297,0 1.66191,0.17363 2.30684,0.5209 0.64492,0.33072 1.17408,0.81855 1.5875,1.46347 v 11.28613 c -0.41342,0.56224 -0.95085,0.98392 -1.61231,1.26504 -0.64492,0.28112 -1.42213,0.42168 -2.33164,0.42168 -1.52135,0 -2.60449,-0.60358 -3.24941,-1.81074 -0.62839,-1.2237 -0.94258,-2.92695 -0.94258,-5.10976 v -0.5209 c 0,-2.24896 0.33073,-4.0597 0.99219,-5.43223 0.67799,-1.38906 1.76113,-2.08359 3.24941,-2.08359 z m 28.69902,0 c 1.17409,0 2.00091,0.35553 2.48047,1.0666 0.4961,0.71107 0.74414,1.76113 0.74414,3.15019 v 0.64493 h -7.24297 l -0.0496,-0.12403 c 0.0992,-1.45521 0.46303,-2.60449 1.09141,-3.44785 0.64492,-0.85989 1.63711,-1.28984 2.97656,-1.28984 z m -119.856247,9.45058 h 3.37344 v 3.54707 c -0.31419,0.66146 -0.86816,1.23197 -1.66191,1.71153 -0.77722,0.47955 -1.67845,0.71933 -2.70371,0.71933 -0.82683,0 -1.50482,-0.23151 -2.03399,-0.69453 -0.51263,-0.47956 -0.76895,-1.09967 -0.76895,-1.86035 0,-0.99219 0.29766,-1.81074 0.89297,-2.45567 0.59532,-0.64492 1.5627,-0.96738 2.90215,-0.96738 z m 63.30157,0 h 3.37343 v 3.54707 c -0.31419,0.66146 -0.86816,1.23197 -1.66191,1.71153 -0.77721,0.47955 -1.67845,0.71933 -2.70371,0.71933 -0.82682,0 -1.50482,-0.23151 -2.03399,-0.69453 -0.51263,-0.47956 -0.76894,-1.09967 -0.76894,-1.86035 0,-0.99219 0.29766,-1.81074 0.89297,-2.45567 0.59531,-0.64492 1.56269,-0.96738 2.90215,-0.96738 z m -59.70489,7.26778 c 0.11576,0.77721 0.28112,1.52135 0.4961,2.23242 0.0896,0.27517 0.18741,0.5357 0.28939,0.78858 h -3.02514 c 0.87219,-0.8036 1.61963,-1.80914 2.23965,-3.021 z m 63.30157,0 c 0.11575,0.77721 0.28112,1.52135 0.49609,2.23242 0.0896,0.27517 0.18742,0.5357 0.28939,0.78858 h -3.02514 c 0.87219,-0.8036 1.61963,-1.80914 2.23966,-3.021 z m 28.153317,1.73632 v 1.28468 h -1.23559 c 0.4429,-0.3682 0.85483,-0.79632 1.23559,-1.28468 z"
         style="font-style:normal;font-variant:normal;font-weight:normal;font-stretch:normal;font-size:50.79999924px;line-height:1.25;font-family:Roboto;-inkscape-font-specification:Roboto;letter-spacing:0px;word-spacing:0px;display:inline;fill:none;fill-opacity:1;stroke:#ff0000;stroke-width:0.2;stroke-miterlimit:4;stroke-dasharray:none;stroke-opacity:1" />
    </g>
    <path
       style="font-style:normal;font-variant:normal;font-weight:normal;font-stretch:normal;font-size:50.79999924px;line-height:1.25;font-family:Roboto;-inkscape-font-specification:Roboto;letter-spacing:0px;word-spacing:0px;display:inline;fill:none;fill-opacity:1;stroke:#ff0000;stroke-width:0.99999994;stroke-opacity:1"
       d="m -138.86523,1105.3496 c -53.37153,0 -96.93165,43.5602 -96.93165,96.9316 v 163.0508 c 0,53.3716 43.56012,96.9239 96.93165,96.9239 h 271.05078 v 1.4531 h 31.6875 v -1.4531 h 135.35742 c 20.44132,76.1089 47.02401,136.8654 75.20117,193.6347 48.28408,-89.5557 57.29634,-139.841 69.81836,-193.6347 h 581.7988 c 53.3716,0 96.9317,-43.5523 96.9317,-96.9239 v -163.0508 c 0,-53.3714 -43.5601,-96.9316 -96.9317,-96.9316 z m 0,37.7949 H 1026.0488 c 33.0867,0 59.1348,26.0501 59.1348,59.1367 v 163.0508 c 0,30.0383 -21.4711,54.2683 -50.1856,58.4785 v -65.9453 c 1.125,-2.4375 2.8438,-4.3125 5.1563,-5.625 2.3125,-1.375 5.2812,-2.0625 8.9062,-2.0625 l 10.3125,0.094 3,-27.75 c -1.25,-0.375 -2.4375,-0.6563 -3.5625,-0.8438 -1.125,-0.1875 -2.4062,-0.2812 -3.8437,-0.2812 -4.6875,0 -8.7813,1.4687 -12.2813,4.4062 -3.5,2.9375 -6.3125,7.0625 -8.4375,12.375 l -1.125,-14.9062 h -29.8125 v 101.1894 h -36.2812 c 1.3545,-0.3233 2.70114,-0.6699 4.03125,-1.0644 7.375,-2.1875 13.25,-4.875 17.625,-8.0625 l -7.59375,-19.3125 c -5.1875,2.1875 -9.8125,3.7812 -13.875,4.7812 -4,1 -9.03125,1.5 -15.09375,1.5 -6.4375,0 -11.375,-1.625 -14.8125,-4.875 -3.4375,-3.3125 -5.40625,-7.625 -5.90625,-12.9375 l 0.1875,-0.5625 h 58.125 v -16.5937 c 0,-14.25 -3.78125,-25.4688 -11.34375,-33.6563 -7.5,-8.1875 -18.09375,-12.2812 -31.78125,-12.2812 -15.5625,-0.062 -27.46875,4.7812 -35.71875,14.5312 -8.1875,9.75 -12.28125,22.375 -12.28125,37.875 v 3.5625 c 0,14.25 4.34375,26.0313 13.03125,35.3438 5.2746,5.6137 11.76134,9.5222 19.44336,11.7519 h -41.98633 c 0.0466,-0.012 0.09,-0.021 0.13672,-0.033 l -2.15625,-23.4375 c -1.5,0.375 -2.75,0.625 -3.75,0.75 -0.9375,0.125 -2.21875,0.1875 -3.84375,0.1875 -2.5,0 -4.5,-0.7812 -6,-2.3437 -1.4375,-1.625 -2.15625,-4.25 -2.15625,-7.875 v -46.5 h 16.03125 v -21.9375 h -16.03125 v -25.2188 h -31.6875 v 25.2188 H 825.4668 v 21.9375 h 14.15625 v 46.6875 c 0,12.0625 2.6875,20.875 8.0625,26.4375 2.63866,2.6993 5.87139,4.7375 9.6875,6.1269 H 817.5918 v -60.7832 c 0,-14.6875 -2.8125,-25.4062 -8.4375,-32.1562 -5.5625,-6.75 -13.3125,-10.125 -23.25,-10.125 -6,0 -11.4375,1.4375 -16.3125,4.3125 -4.875,2.8125 -8.96875,6.75 -12.28125,11.8125 l -1.21875,-14.25 h -29.71875 v 101.1894 H 690.6543 c 1.3545,-0.3233 2.70114,-0.6699 4.03125,-1.0644 7.375,-2.1875 13.25,-4.875 17.625,-8.0625 l -7.59375,-19.3125 c -5.1875,2.1875 -9.8125,3.7812 -13.875,4.7812 -4,1 -9.03125,1.5 -15.09375,1.5 -6.4375,0 -11.375,-1.625 -14.8125,-4.875 -3.4375,-3.3125 -5.40625,-7.625 -5.90625,-12.9375 l 0.1875,-0.5625 h 58.125 v -16.5937 c 0,-14.25 -3.78125,-25.4688 -11.34375,-33.6563 -7.5,-8.1875 -18.09375,-12.2812 -31.78125,-12.2812 -15.5625,-0.062 -27.46875,4.7812 -35.71875,14.5312 -8.1875,9.75 -12.28125,22.375 -12.28125,37.875 v 3.5625 c 0,14.25 4.34375,26.0313 13.03125,35.3438 5.2746,5.6137 11.76134,9.5222 19.44336,11.7519 H 608.3418 v -59.6582 c 0,-14.75 -2.84375,-25.6562 -8.53125,-32.7187 -5.625,-7.125 -13.375,-10.6875 -23.25,-10.6875 -6.5625,0 -12.3125,1.4687 -17.25,4.4062 -4.875,2.875 -8.875,6.9688 -12,12.2813 -2.3125,-5.625 -5.75,-9.8125 -10.3125,-12.5625 -4.5625,-2.75 -10,-4.125 -16.3125,-4.125 -6.25,0 -11.8125,1.3437 -16.6875,4.0312 -4.8125,2.625 -8.8125,6.375 -12,11.25 l -1.125,-13.4062 h -29.8125 v 101.1894 h -19.3125 V 1323.2715 H 409.9668 v 101.1894 h -37.59375 v -66.5957 c 1.125,-2.4375 2.84375,-4.3125 5.15625,-5.625 2.3125,-1.375 5.28125,-2.0625 8.90625,-2.0625 l 10.3125,0.094 3,-27.75 c -1.25,-0.375 -2.4375,-0.6563 -3.5625,-0.8438 -1.125,-0.1875 -2.40625,-0.2812 -3.84375,-0.2812 -4.6875,0 -8.78125,1.4687 -12.28125,4.4062 -3.5,2.9375 -6.3125,7.0625 -8.4375,12.375 l -1.125,-14.9062 h -29.8125 v 101.1894 H 304.4043 c 1.3545,-0.3233 2.70114,-0.6699 4.03125,-1.0644 7.375,-2.1875 13.25,-4.875 17.625,-8.0625 l -7.59375,-19.3125 c -5.1875,2.1875 -9.8125,3.7812 -13.875,4.7812 -4,1 -9.03125,1.5 -15.09375,1.5 -6.4375,0 -11.375,-1.625 -14.8125,-4.875 -3.4375,-3.3125 -5.40625,-7.625 -5.90625,-12.9375 l 0.1875,-0.5625 h 58.125 v -16.5937 c 0,-14.25 -3.78125,-25.4688 -11.34375,-33.6563 -7.5,-8.1875 -18.09375,-12.2812 -31.78125,-12.2812 -15.5625,-0.062 -27.46875,4.7812 -35.71875,14.5312 -8.1875,9.75 -12.28125,22.375 -12.28125,37.875 v 3.5625 c 0,14.25 4.34375,26.0313 13.03125,35.3438 5.2746,5.6137 11.76134,9.5222 19.44336,11.7519 h -68.05469 c 6.15124,-2.2048 11.2982,-6.0511 15.42383,-11.5644 6.875,-9.25 10.3125,-21.5 10.3125,-36.75 v -1.9688 c 0,-15.8125 -3.46875,-28.5625 -10.40625,-38.25 -6.875,-9.6875 -16.59375,-14.5312 -29.15625,-14.5312 -5.0625,0 -9.5625,1.125 -13.5,3.375 -3.875,2.25 -7.21875,5.4375 -10.03125,9.5625 l -0.9375,-11.0625 h -29.90625 v 101.1894 h -8.67774 l -30.322263,-51.0332 29.437503,-50.1562 H 87.091797 l -12.84375,29.9062 h -0.5625 l -12.375,-29.9062 h -35.34375 l 29.53125,50.1562 -30.322266,51.0332 h -7.646484 v -24.1269 h -57.65625 v -34.0313 H 7.9667969 v -24.375 H -40.126953 v -29.3437 h 57.75 v -24.375 h -89.4375 v 136.2519 h -67.050777 c -33.0867,0 -59.13672,-26.0422 -59.13672,-59.1289 v -163.0508 c 0,-33.0866 26.05002,-59.1367 59.13672,-59.1367 z M 409.9668,1278.459 v 21.2812 h 31.78125 v -21.2812 z m -124.5,1.3125 -19.3125,24.9375 h 27.9375 l 26.34375,-24.375 -0.1875,-0.5625 z m -106.6875,66 c 5.5,0 9.5,2.5937 12,7.7812 2.5,5.1875 3.75,12.0625 3.75,20.625 v 1.9688 c 0,8.25 -1.21875,14.6875 -3.65625,19.3125 -2.375,4.5625 -6.34375,6.8437 -11.90625,6.8437 -3.625,0 -6.6875,-0.5312 -9.1875,-1.5937 -2.4375,-1.0625 -4.40625,-2.6875 -5.90625,-4.875 v -42.375 c 1.4375,-2.5 3.375,-4.4063 5.8125,-5.7188 2.5,-1.3125 5.53125,-1.9687 9.09375,-1.9687 z m 105.1875,0 c 4.4375,0 7.5625,1.3437 9.375,4.0312 1.875,2.6875 2.8125,6.6563 2.8125,11.9063 v 2.4375 h -27.375 l -0.1875,-0.4688 c 0.375,-5.5 1.75,-9.8437 4.125,-13.0312 2.4375,-3.25 6.1875,-4.875 11.25,-4.875 z m 222.5625,0 c 4.1875,0 7.28125,1.3437 9.28125,4.0312 2,2.6875 3,7.6875 3,15 v 59.6582 h -26.0625 v -72.5019 c 1.625,-1.9375 3.59375,-3.4375 5.90625,-4.5 2.375,-1.125 5,-1.6875 7.875,-1.6875 z m 57.84375,0 c 4.0625,0 7.09375,1.375 9.09375,4.125 2.0625,2.6875 3.09375,7.6562 3.09375,14.9062 v 59.6582 h -26.0625 v -67.4394 c 0,-0.75 -0.0312,-1.5 -0.0937,-2.25 -0.0625,-0.8125 -0.0937,-1.75 -0.0937,-2.8125 1.625,-1.9375 3.59375,-3.4375 5.90625,-4.5 2.375,-1.125 5.09375,-1.6875 8.15625,-1.6875 z m 105.84375,0 c 4.4375,0 7.5625,1.3437 9.375,4.0312 1.875,2.6875 2.8125,6.6563 2.8125,11.9063 v 2.4375 h -27.375 l -0.1875,-0.4688 c 0.375,-5.5 1.75,-9.8437 4.125,-13.0312 2.4375,-3.25 6.1875,-4.875 11.25,-4.875 z m 103.59375,0 c 3.9375,0 6.9375,1.375 9,4.125 2.0625,2.6875 3.09375,7.25 3.09375,13.6875 v 60.8769 h -27.9375 v -71.8457 c 1.8125,-2.1875 4.0625,-3.875 6.75,-5.0625 2.6875,-1.1875 5.71875,-1.7812 9.09375,-1.7812 z m 172.78125,0 c 4.4375,0 7.5625,1.3437 9.375,4.0312 1.875,2.6875 2.8125,6.6563 2.8125,11.9063 v 2.4375 h -27.375 l -0.1875,-0.4688 c 0.375,-5.5 1.75,-9.8437 4.125,-13.0312 2.4375,-3.25 6.1875,-4.875 11.25,-4.875 z m -872.531253,48.0937 h 0.5625 l 13.390625,30.5957 h -27.34375 z m 89.812503,21.8438 c 2.8125,3.5625 6.09375,6.2812 9.84375,8.1562 0.43117,0.2121 0.87164,0.4077 1.3164,0.5957 h -11.16015 z"
       transform="matrix(0.26458333,0,0,0.26458333,-36.567027,-51.466861)"
       id="text2494"
       inkscape:connector-curvature="0" />
  </g>
  <g
     inkscape:groupmode="layer"
     id="layer2"
     inkscape:label="gravure"
     style="display:inline"
     transform="translate(78.970226,23.711836)">
    <path
       style="color:#000000;font-style:normal;font-variant:normal;font-weight:normal;font-stretch:normal;font-size:medium;line-height:normal;font-family:sans-serif;font-variant-ligatures:normal;font-variant-position:normal;font-variant-caps:normal;font-variant-numeric:normal;font-variant-alternates:normal;font-feature-settings:normal;text-indent:0;text-align:start;text-decoration:none;text-decoration-line:none;text-decoration-style:solid;text-decoration-color:#000000;letter-spacing:normal;word-spacing:normal;text-transform:none;writing-mode:lr-tb;direction:ltr;text-orientation:mixed;dominant-baseline:auto;baseline-shift:baseline;text-anchor:start;white-space:normal;shape-padding:0;clip-rule:nonzero;display:inline;overflow:visible;visibility:visible;opacity:1;isolation:auto;mix-blend-mode:normal;color-interpolation:sRGB;color-interpolation-filters:linearRGB;solid-color:#000000;solid-opacity:1;vector-effect:none;fill:none;fill-opacity:1;fill-rule:nonzero;stroke:#0000ff;stroke-width:0.75590551;stroke-linecap:butt;stroke-linejoin:miter;stroke-miterlimit:4;stroke-dasharray:none;stroke-dashoffset:0;stroke-opacity:1;color-rendering:auto;image-rendering:auto;shape-rendering:auto;text-rendering:auto;enable-background:accumulate"
       d="m 136.15625,229.91992 v 3.64063 H 167.75 v -3.64063 m 21.375,0 v 3.64063 h 31.59375 v -3.64063 m 27.9375,0 v 3.64063 h 31.6875 v -3.64063 m 30.78125,0 c 7.02085,3.73388 15.56829,5.60938 25.65625,5.60938 10.61593,0 19.55659,-1.87339 26.83398,-5.60938 m 32.32227,0 v 37.79688 m 31.6875,0 v -37.79688 m 5.39844,0 c 1.40168,1.07637 2.88035,2.0144 4.44531,2.79688 3.8125,1.875 8.15625,2.8125 13.03125,2.8125 7.96871,0 14.78801,-1.87556 20.4707,-5.60938 m 34.37305,0 v 3.64063 H 537.125 v -3.64063 m 19.3125,0 v 3.64063 h 31.6875 v -3.64063 m 54.08789,0 c 7.08056,3.73606 15.48618,5.60938 25.22461,5.60938 8.125,0 15.875,-1.09375 23.25,-3.28125 2.42773,-0.72009 4.67665,-1.49968 6.7793,-2.32813 m 25.4707,0 v 3.64063 h 31.6875 v -3.64063"
       transform="scale(0.26458333)"
       id="path845"
       inkscape:connector-curvature="0"
       sodipodi:nodetypes="cccccccccccccscccccccsccccccccccssccccc" />
    <path
       style="font-style:normal;font-variant:normal;font-weight:normal;font-stretch:normal;font-size:50.79999924px;line-height:1.25;font-family:Roboto;-inkscape-font-specification:Roboto;letter-spacing:0px;word-spacing:0px;display:inline;fill:none;fill-opacity:1;stroke:#0000ff;stroke-width:0.75590551;stroke-miterlimit:4;stroke-dasharray:none;stroke-opacity:1"
       d="m 79.931641,872.37695 v 4.33203 h 31.687499 v -4.33203 m 93.01172,0 c 5.71729,4.19992 13.24412,6.30078 22.58203,6.30078 6.5,0 11.75,-1.59375 15.75,-4.78125 0.60066,-0.48052 1.18194,-0.99255 1.75391,-1.51953 m 11.43359,0 c 0.61052,1.51404 1.27205,2.93563 2,4.23828 l 31.3125,0.0937 c -0.56591,-1.44403 -1.07408,-2.88799 -1.55469,-4.33203 m 13.64844,0 v 4.33203 h 31.6875 v -4.33203 m 52.71094,0 c 5.29392,4.19802 12.47164,6.30078 21.53906,6.30078 3.5,0 6.53125,-0.1875 9.09375,-0.5625 2.5625,-0.3125 5.4375,-0.875 8.625,-1.6875 l -0.37305,-4.05078 m 19.04102,0 c 5.71729,4.19992 13.24412,6.30078 22.58203,6.30078 6.5,0 11.75,-1.59375 15.75,-4.78125 0.60066,-0.48052 1.18194,-0.99255 1.75391,-1.51953 m 11.43359,0 c 0.61052,1.51404 1.27205,2.93563 2,4.23828 l 31.3125,0.0937 c -0.56591,-1.44403 -1.07408,-2.88799 -1.55469,-4.33203 m 27.29102,0 c 5.86657,4.19414 13.00286,6.30078 21.41992,6.30078 4.875,0 9.1875,-0.9375 12.9375,-2.8125 1.90419,-0.93648 3.69101,-2.09965 5.36133,-3.48828 m 4.66992,0 v 3.01953 c 0,5.8125 -1.65625,10.0625 -4.96875,12.75 -3.25,2.6875 -8.25,4.03125 -15,4.03125 -5.375,0 -10.15625,-0.5 -14.34375,-1.5 -4.125,-0.9375 -8.46875,-2.40625 -13.03125,-4.40625 l -5.4375,23.4375 c 0.34107,0.15836 0.68612,0.30876 1.0293,0.4629 m 64.58594,0 c 1.82842,-1.07266 3.55407,-2.25385 5.16601,-3.55665 9.1875,-7.3125 13.78125,-17.65625 13.78125,-31.03125 v -3.20703 m 36.7168,0 c 7.33427,4.19383 16.15289,6.30078 26.4707,6.30078 8.125,0 15.875,-1.09375 23.25,-3.28125 3.09114,-0.91686 5.90268,-1.92699 8.4668,-3.01953 m 23.7832,0 v 4.33203 h 31.6875 v -4.33203"
       transform="matrix(0.26458333,0,0,0.26458333,-11.625236,-23.711836)"
       id="text872"
       inkscape:connector-curvature="0"
       sodipodi:nodetypes="cccccscccccccccccsccccscccccccscccscsccccccsccscccccc" />
    <path
       style="font-style:normal;font-variant:normal;font-weight:normal;font-stretch:normal;font-size:50.79999924px;line-height:1.25;font-family:Roboto;-inkscape-font-specification:Roboto;letter-spacing:0px;word-spacing:0px;display:inline;fill:none;fill-opacity:1;stroke:#0000ff;stroke-width:0.75590551;stroke-miterlimit:4;stroke-dasharray:none;stroke-opacity:1"
       d="m 1034.998,1423.8105 c -2.9141,0.4273 -5.9007,0.6504 -8.9492,0.6504 h -22.7383 v 0.2481 h 31.6875 z m -1106.812453,0.6504 v 0.2481 h 89.34375 v -0.2481 z m 96.990234,0 -0.146484,0.2481 h 35.53125 l 0.109375,-0.2481 z m 62.837891,0 0.109375,0.2481 H 123.6543 l -0.14649,-0.2481 z m 44.171878,0 v 37.795 m 31.6875,0 v -37.795 m 11.16015,0 c 3.4879,1.4749 7.39118,2.2168 11.71485,2.2168 4.99886,0 9.5394,-0.7474 13.63867,-2.2168 m 68.05469,0 c 5.06161,1.4692 10.63738,2.2168 16.74414,2.2168 6.65963,0 13.06298,-0.7472 19.21875,-2.2168 m 36.28125,0 v 0.2481 h 31.6875 v -0.2481 z m 69.28125,0 v 0.2481 h 31.78125 v -0.2481 z m 51.09375,0 v 0.2481 h 31.6875 v -0.2481 z m 57.75,0 v 0.2481 h 31.6875 v -0.2481 z m 57.75,0 v 0.2481 h 31.78125 v -0.2481 z m 78.13086,0 c 5.06161,1.4692 10.63738,2.2168 16.74414,2.2168 6.65963,0 13.06298,-0.7472 19.21875,-2.2168 m 35.71875,0 v 0.2481 h 31.59375 v -0.2481 z m 59.53125,0 v 0.2481 h 31.6875 v -0.2481 z m 71.46875,0 c 4.04775,1.4738 8.75252,2.2168 14.125,2.2168 3.5,0 6.53125,-0.1875 9.09375,-0.5625 2.52493,-0.3079 5.35654,-0.8609 8.48828,-1.6543 m 41.98633,0 c 5.06161,1.4692 10.63738,2.2168 16.74414,2.2168 6.65963,0 13.06298,-0.7472 19.21875,-2.2168"
       transform="matrix(0.26458333,0,0,0.26458333,-16.450011,-23.711836)"
       id="text2541"
       inkscape:connector-curvature="0"
       sodipodi:nodetypes="csccccccccccccccccccccccccsccscccccccccccccccccccccccccccscacccaccccccscccsc" />
  </g>
</svg>
