<?xml version="1.0" encoding="UTF-8" standalone="no"?>
<!-- Created with Inkscape (http://www.inkscape.org/) -->

<svg
   xmlns:dc="http://purl.org/dc/elements/1.1/"
   xmlns:cc="http://creativecommons.org/ns#"
   xmlns:rdf="http://www.w3.org/1999/02/22-rdf-syntax-ns#"
   xmlns:svg="http://www.w3.org/2000/svg"
   xmlns="http://www.w3.org/2000/svg"
   xmlns:sodipodi="http://sodipodi.sourceforge.net/DTD/sodipodi-0.dtd"
   xmlns:inkscape="http://www.inkscape.org/namespaces/inkscape"
   width="244.67862mm"
   height="271.56882mm"
   viewBox="0 0 244.67863 271.56882"
   version="1.1"
   id="svg8"
   inkscape:version="0.92.3 (2405546, 2018-03-11)"
   sodipodi:docname="inspiration-laser.svg">
  <defs
     id="defs2" />
  <sodipodi:namedview
     id="base"
     pagecolor="#ffffff"
     bordercolor="#666666"
     borderopacity="1.0"
     inkscape:pageopacity="0.0"
     inkscape:pageshadow="2"
     inkscape:zoom="0.60714612"
     inkscape:cx="613.39718"
     inkscape:cy="-428.59225"
     inkscape:document-units="mm"
     inkscape:current-layer="layer1"
     showgrid="false"
     fit-margin-top="0"
     fit-margin-left="0"
     fit-margin-right="0"
     fit-margin-bottom="0"
     inkscape:window-width="1920"
     inkscape:window-height="1017"
     inkscape:window-x="-8"
     inkscape:window-y="-8"
     inkscape:window-maximized="1" />
  <metadata
     id="metadata5">
    <rdf:RDF>
      <cc:Work
         rdf:about="">
        <dc:format>image/svg+xml</dc:format>
        <dc:type
           rdf:resource="http://purl.org/dc/dcmitype/StillImage" />
        <dc:title></dc:title>
      </cc:Work>
    </rdf:RDF>
  </metadata>
  <g
     inkscape:label="découpe"
     inkscape:groupmode="layer"
     id="layer1"
     transform="translate(36.567027,51.466861)"
     style="display:inline">
    <g
       id="g829">
      <path
         inkscape:connector-curvature="0"
         id="rect837"
         transform="matrix(0.26458333,0,0,0.26458333,-41.742411,-61.46702)"
         d="m 113.51367,38.173828 c -41.410395,0 -75.339842,33.929447 -75.339842,75.339842 v 206.2793 c 0,41.4104 33.929447,75.33984 75.339842,75.33984 h 364.15821 v 4.84375 h 31.6875 v -4.84375 h 121.2207 C 649.7452,474.943 717.44841,526.80751 819.65039,558.80859 775.18031,508.18103 733.5282,456.94085 740.48828,395.13281 H 846.4082 c 41.41043,0 75.33985,-33.92944 75.33985,-75.33984 v -206.2793 c 0,-41.410395 -33.92942,-75.339841 -75.33985,-75.339842 z m 0,37.794922 H 846.4082 c 21.12559,0 37.54492,16.419355 37.54492,37.54492 v 206.2793 c 0,21.12557 -16.41933,37.54297 -37.54492,37.54297 h -10.04882 v -63.20313 c 1.12499,-2.4375 2.84375,-4.3125 5.15624,-5.625 2.3125,-1.375 5.28126,-2.0625 8.90626,-2.0625 l 10.3125,0.0937 3,-27.75 c -1.25,-0.375 -2.43751,-0.65625 -3.5625,-0.84375 -1.125,-0.1875 -2.40626,-0.28125 -3.84376,-0.28125 -4.68749,0 -8.78125,1.46875 -12.28124,4.40625 -3.5,2.9375 -6.31251,7.0625 -8.4375,12.375 l -1.125,-14.90625 h -29.8125 v 97.79688 h -25.47071 c 4.2848,-1.68823 7.91089,-3.59616 10.84571,-5.73438 l -7.59376,-19.3125 c -5.18749,2.1875 -9.8125,3.78125 -13.875,4.78125 -3.99999,1 -9.03125,1.5 -15.09374,1.5 -6.4375,0 -11.37501,-1.625 -14.8125,-4.875 -3.4375,-3.3125 -5.40626,-7.625 -5.90626,-12.9375 l 0.1875,-0.5625 h 58.125 v -16.59375 c 0,-14.25 -3.78125,-25.46875 -11.34374,-33.65625 -7.5,-8.1875 -18.09376,-12.28125 -31.78126,-12.28125 -15.56249,-0.0625 -27.46875,4.78125 -35.71874,14.53125 -8.1875,9.75 -12.28126,22.375 -12.28126,37.875 v 3.5625 c 0,14.25 4.34376,26.03125 13.03126,35.34375 3.20779,3.41402 6.86469,6.19696 10.96289,8.35938 h -54.08789 v -63.20313 c 1.12499,-2.4375 2.84375,-4.3125 5.15624,-5.625 2.3125,-1.375 5.28126,-2.0625 8.90626,-2.0625 l 10.3125,0.0937 3,-27.75 c -1.25,-0.375 -2.43751,-0.65625 -3.5625,-0.84375 -1.125,-0.1875 -2.40626,-0.28125 -3.84376,-0.28125 -4.68749,0 -8.78125,1.46875 -12.28124,4.40625 -3.5,2.9375 -6.31251,7.0625 -8.4375,12.375 l -1.125,-14.90625 h -29.8125 v 97.79688 h -19.3125 v -97.79688 h -31.78126 v 97.79688 h -34.37304 c 3.23139,-2.12318 6.09959,-4.84139 8.5918,-8.17188 6.87499,-9.25 10.3125,-21.5 10.3125,-36.75 v -1.96875 c 0,-15.8125 -3.46876,-28.5625 -10.40626,-38.25 -6.87499,-9.6875 -16.59375,-14.53125 -29.15624,-14.53125 -5.0625,0 -9.56251,1.125 -13.5,3.375 -3.875,2.25 -7.21876,5.4375 -10.03126,9.5625 l -0.9375,-11.0625 h -29.90624 v 97.79688 h -32.32227 c 1.84854,-0.94898 3.59539,-2.0131 5.22851,-3.20313 8.125,-5.9375 12.18751,-13.46875 12.1875,-22.59375 0,-8.875 -2.96875,-15.71875 -8.90624,-20.53125 -5.9375,-4.875 -15.12501,-8.53125 -27.5625,-10.96875 -7.875,-1.5 -13.12501,-3.1875 -15.75,-5.0625 -2.5625,-1.875 -3.84375,-4.15625 -3.84376,-6.84375 0,-2.8125 1.12501,-5.125 3.375,-6.9375 2.25,-1.8125 5.03126,-2.71875 8.34376,-2.71875 4.56249,0 7.84375,1.03125 9.84374,3.09375 2,2.0625 3.00001,5.09375 3,9.09375 h 30.75 l 0.1875,-0.5625 c 0.375,-9.5625 -3.4375,-17.34375 -11.4375,-23.34375 -7.99999,-6.0625 -18.75,-9.09375 -32.25,-9.09375 -12.81249,0 -22.96875,3.125 -30.46874,9.375 -7.5,6.1875 -11.25,13.75 -11.25,22.6875 0,8.5 3,15.1875 9,20.0625 5.99999,4.8125 14.90625,8.375 26.71874,10.6875 7.5,1.5625 12.65626,3.34375 15.46876,5.34375 2.87499,1.9375 4.3125,4.15625 4.3125,6.65625 0,3.0625 -1.09376,5.4375 -3.28126,7.125 -2.18749,1.625 -5.40625,2.4375 -9.65624,2.4375 -5.125,0 -9.09376,-1.0625 -11.90626,-3.1875 -2.74999,-2.125 -4.1875,-5.59375 -4.3125,-10.40625 h -28.6875 l -0.1875,0.5625 c -0.37499,8.625 3.43751,16.4375 11.4375,23.4375 2.17405,1.88755 4.56412,3.51206 7.15626,4.89063 h -30.78126 v -57.39063 c 0,-14.6875 -2.8125,-25.40625 -8.4375,-32.15625 -5.56249,-6.75 -13.3125,-10.125 -23.25,-10.125 -5.99999,0 -11.4375,1.4375 -16.3125,4.3125 -4.87499,2.8125 -8.96875,6.75 -12.28124,11.8125 l -1.21876,-14.25 h -29.71874 v 97.79688 h -21.375 V 224.47656 H 217.89062 V 357.33594 H 113.51367 c -21.125565,0 -37.54492,-16.4174 -37.54492,-37.54297 v -206.2793 c 0,-21.125565 16.419355,-37.54492 37.54492,-37.54492 z m 204.78321,206.07031 c 3.93749,0 6.9375,1.375 9,4.125 2.06249,2.6875 3.09374,7.25 3.09374,13.6875 v 57.48438 h -27.9375 v -68.45313 c 1.8125,-2.1875 4.06251,-3.875 6.75,-5.0625 2.6875,-1.1875 5.71876,-1.78125 9.09376,-1.78125 z m 205.96874,0 c 5.5,0 9.50001,2.59375 12,7.78125 2.5,5.1875 3.75,12.0625 3.75,20.625 v 1.96875 c 0,8.25 -1.21875,14.6875 -3.65624,19.3125 -2.375,4.5625 -6.34376,6.84375 -11.90626,6.84375 -3.62499,0 -6.6875,-0.53125 -9.1875,-1.59375 -2.43749,-1.0625 -4.40625,-2.6875 -5.90624,-4.875 v -42.375 c 1.43749,-2.5 3.375,-4.40625 5.8125,-5.71875 2.49999,-1.3125 5.53125,-1.96875 9.09374,-1.96875 z m 223.6875,0 c 4.4375,0 7.56251,1.34375 9.375,4.03125 1.875,2.6875 2.81251,6.65625 2.8125,11.90625 v 2.4375 h -27.375 l -0.1875,-0.46875 c 0.375,-5.5 1.75001,-9.84375 4.125,-13.03125 2.4375,-3.25 6.18751,-4.875 11.25,-4.875 z m -238.59374,69.9375 c 1.63877,2.07579 3.44135,3.85652 5.39843,5.35938 h -5.39843 z"
         style="color:#000000;font-style:normal;font-variant:normal;font-weight:normal;font-stretch:normal;font-size:medium;line-height:normal;font-family:sans-serif;font-variant-ligatures:normal;font-variant-position:normal;font-variant-caps:normal;font-variant-numeric:normal;font-variant-alternates:normal;font-feature-settings:normal;text-indent:0;text-align:start;text-decoration:none;text-decoration-line:none;text-decoration-style:solid;text-decoration-color:#000000;letter-spacing:normal;word-spacing:normal;text-transform:none;writing-mode:lr-tb;direction:ltr;text-orientation:mixed;dominant-baseline:auto;baseline-shift:baseline;text-anchor:start;white-space:normal;shape-padding:0;clip-rule:nonzero;display:inline;overflow:visible;visibility:visible;opacity:1;isolation:auto;mix-blend-mode:normal;color-interpolation:sRGB;color-interpolation-filters:linearRGB;solid-color:#000000;solid-opacity:1;vector-effect:none;fill:none;fill-opacity:1;fill-rule:nonzero;stroke:#ff0000;stroke-width:0.75590551;stroke-linecap:butt;stroke-linejoin:miter;stroke-miterlimit:4;stroke-dasharray:none;stroke-dashoffset:0;stroke-opacity:1;color-rendering:auto;image-rendering:auto;shape-rendering:auto;text-rendering:auto;enable-background:accumulate" />
    </g>
    <g
       id="g826">
      <path
         inkscape:connector-curvature="0"
         id="text861"
         d="m -11.927957,90.455223 c -13.50863,0 -24.53907,11.031987 -24.53907,24.540617 v 49.81298 c 0,13.50864 11.03044,24.54062 24.53907,24.54062 h 62.01431 c -5.13347,13.08318 -13.66744,21.06565 -21.1243,30.66376 19.68177,-10.22123 42.7315,-20.44254 52.30534,-30.66376 h 31.740177 c 1.30686,0.58695 2.67077,1.05978 4.09329,1.41541 1.52136,0.38034 2.97656,0.57051 4.36563,0.57051 3.49913,0 6.37464,-0.66313 8.62945,-1.98592 h 53.37658 c 13.50863,0 24.53907,-11.03198 24.53907,-24.54062 v -49.81298 c 0,-13.50863 -11.03044,-24.540617 -24.53907,-24.540617 z m 0,9.999907 H 183.47252 c 8.1416,0 14.53917,6.39911 14.53917,14.54071 v 49.81298 c 0,8.14161 -6.39757,14.54071 -14.53917,14.54071 h -8.57674 v -16.53956 c 0.29766,-0.64492 0.75241,-1.14101 1.36426,-1.48828 0.61185,-0.3638 1.39733,-0.5457 2.35645,-0.5457 l 2.72851,0.0248 0.79375,-7.34219 c -0.33073,-0.0992 -0.64492,-0.17363 -0.94258,-0.22324 -0.29765,-0.0496 -0.63665,-0.0744 -1.01699,-0.0744 -1.24023,0 -2.32337,0.3886 -3.24941,1.16582 -0.92604,0.77721 -1.67018,1.86862 -2.23242,3.27422 l -0.29766,-3.94395 h -7.88789 v 25.69248 h -6.29264 c 0.94019,-0.4006 1.75073,-0.84441 2.42311,-1.33429 l -2.00918,-5.10976 c -1.37253,0.57877 -2.59623,1.00046 -3.6711,1.26504 -1.05833,0.26458 -2.38951,0.39687 -3.99355,0.39687 -1.70326,0 -3.00964,-0.42995 -3.91914,-1.28984 -0.90951,-0.87643 -1.4304,-2.01745 -1.5627,-3.42305 l 0.0496,-0.14883 h 15.37891 v -4.39042 c 0,-3.77032 -1.00046,-6.73861 -3.00137,-8.90489 -1.98437,-2.16627 -4.7873,-3.24941 -8.40879,-3.24941 -4.11757,-0.0165 -7.26777,1.26504 -9.45058,3.84472 -2.16628,2.57969 -3.24942,5.92006 -3.24942,10.0211 v 0.94258 c 0,3.77031 1.14929,6.88743 3.44786,9.35136 0.76149,0.81045 1.61976,1.48495 2.5709,2.02882 h -9.71464 v -25.69249 h -7.3918 l -0.5457,3.34863 c -0.77722,-1.22369 -1.70326,-2.16627 -2.77813,-2.82773 -1.07487,-0.67799 -2.3151,-1.01699 -3.7207,-1.01699 -3.32383,0 -5.90352,1.28157 -7.73907,3.84472 -1.81901,2.56315 -2.72851,5.93659 -2.72851,10.12032 v 0.52089 c 0,4.01837 0.9095,7.25124 2.72851,9.69864 0.59416,0.7994 1.26917,1.46572 2.0221,2.00401 h -7.22074 c -0.28012,-0.84163 -0.50947,-1.68328 -0.68007,-2.52491 -0.23151,-1.2237 -0.34726,-2.54662 -0.34726,-3.96875 v -10.12031 c 0,-3.07578 -1.03353,-5.4405 -3.10059,-7.09414 -2.05052,-1.65365 -4.737687,-2.48047 -8.061517,-2.48047 -3.5388,0 -6.39134,0.82682 -8.55762,2.48047 -2.14974,1.63711 -3.16673,3.67936 -3.05097,6.12675 l 0.0496,0.14883 8.13594,0.0248 c 0,-0.95911 0.23151,-1.66191 0.69453,-2.10839 0.47956,-0.46303 1.20717,-0.69454 2.18282,-0.69454 1.12448,0 1.95957,0.30593 2.50527,0.91778 0.5457,0.61185 0.81855,1.48828 0.81855,2.62929 v 1.90996 h -3.44785 c -4.06797,0 -7.10241,0.72761 -9.10332,2.18282 -2.00091,1.43867 -3.00136,3.48919 -3.00136,6.15156 0,2.497 0.77721,4.47311 2.33164,5.92832 0.1903,0.17428 0.38991,0.33776 0.59841,0.49093 h -5.03794 l -0.4718,-5.12941 c -0.39688,0.0992 -0.72761,0.16537 -0.99219,0.19844 -0.24805,0.0331 -0.58704,0.0496 -1.01699,0.0496 -0.66146,0 -1.19063,-0.20671 -1.5875,-0.62012 -0.38034,-0.42994 -0.57051,-1.12447 -0.57051,-2.08359 v -12.30313 h 4.2416 v -5.80429 h -4.2416 v -6.67246 h -8.38398 v 6.67246 h -3.74551 v 5.80429 h 3.74551 v 12.35274 c 0,3.19154 0.71106,5.52318 2.1332,6.99492 0.18885,0.1932 0.38987,0.37271 0.60151,0.54054 h -13.94643 v -16.53956 c 0.29765,-0.64492 0.75241,-1.14101 1.36426,-1.48828 0.61184,-0.3638 1.39733,-0.5457 2.35644,-0.5457 l 2.72852,0.0248 0.79375,-7.34219 c -0.33073,-0.0992 -0.64493,-0.17363 -0.94258,-0.22324 -0.29766,-0.0496 -0.63666,-0.0744 -1.01699,-0.0744 -1.24024,0 -2.32338,0.3886 -3.24942,1.16582 -0.92604,0.77721 -1.67018,1.86862 -2.23242,3.27422 l -0.29766,-3.94395 h -7.88789 v 25.69248 h -3.61115 c -0.28011,-0.84163 -0.50946,-1.68328 -0.68006,-2.52491 -0.23151,-1.2237 -0.34726,-2.54662 -0.34726,-3.96875 v -10.12031 c 0,-3.07578 -1.03353,-5.4405 -3.10059,-7.09414 -2.05052,-1.65365 -4.73769,-2.48047 -8.06152,-2.48047 -3.53881,0 -6.39135,0.82682 -8.55762,2.48047 -2.14974,1.63711 -3.16673,3.67936 -3.05098,6.12675 l 0.0496,0.14883 8.13594,0.0248 c 0,-0.95911 0.23151,-1.66191 0.69453,-2.10839 0.47956,-0.46303 1.20716,-0.69454 2.18281,-0.69454 1.12448,0 1.95957,0.30593 2.50528,0.91778 0.5457,0.61185 0.81855,1.48828 0.81855,2.62929 v 1.90996 h -3.44785 c -4.06797,0 -7.10241,0.72761 -9.10332,2.18282 -2.00091,1.43867 -3.00137,3.48919 -3.00137,6.15156 0,2.49701 0.77721,4.47311 2.33164,5.92832 0.1903,0.17428 0.38991,0.33776 0.59842,0.49093 h -24.60936 v -11.23136 h 5.40743 c 4.28294,0 7.68118,-1.08314 10.19472,-3.24941 2.51354,-2.18282 3.77031,-5.05189 3.77031,-8.60723 0,-3.55534 -1.25677,-6.42441 -3.77031,-8.60723 -2.51354,-2.18281 -5.91178,-3.27422 -10.19472,-3.27422 h -13.79141 v 34.96945 h -1.33429 c -8.1416,0 -14.53864,-6.3991 -14.53864,-14.54071 v -49.81298 c 0,-8.1416 6.39704,-14.54071 14.53864,-14.54071 z m 9.71827,50.37418 h 5.40743 c 1.83554,0 3.2246,0.51263 4.16718,1.53789 0.95912,1.02526 1.43867,2.33991 1.43867,3.94394 0,1.57097 -0.47955,2.86081 -1.43867,3.86953 -0.95911,0.99219 -2.34817,1.48829 -4.16718,1.48829 h -5.40743 z m 125.015627,8.78086 c 0.89297,0 1.66191,0.17363 2.30684,0.5209 0.64492,0.33072 1.17408,0.81855 1.5875,1.46347 v 11.28613 c -0.41342,0.56224 -0.95085,0.98392 -1.61231,1.26504 -0.64492,0.28112 -1.42213,0.42168 -2.33164,0.42168 -1.52135,0 -2.60449,-0.60358 -3.24941,-1.81074 -0.62839,-1.2237 -0.94258,-2.92695 -0.94258,-5.10976 v -0.5209 c 0,-2.24896 0.33073,-4.0597 0.99219,-5.43223 0.67799,-1.38906 1.76113,-2.08359 3.24941,-2.08359 z m 28.69902,0 c 1.17409,0 2.00091,0.35553 2.48047,1.0666 0.4961,0.71107 0.74414,1.76113 0.74414,3.15019 v 0.64493 h -7.24297 l -0.0496,-0.12403 c 0.0992,-1.45521 0.46303,-2.60449 1.09141,-3.44785 0.64492,-0.85989 1.63711,-1.28984 2.97656,-1.28984 z m -119.856247,9.45058 h 3.37344 v 3.54707 c -0.31419,0.66146 -0.86816,1.23197 -1.66191,1.71153 -0.77722,0.47955 -1.67845,0.71933 -2.70371,0.71933 -0.82683,0 -1.50482,-0.23151 -2.03399,-0.69453 -0.51263,-0.47956 -0.76895,-1.09967 -0.76895,-1.86035 0,-0.99219 0.29766,-1.81074 0.89297,-2.45567 0.59532,-0.64492 1.5627,-0.96738 2.90215,-0.96738 z m 63.30157,0 h 3.37343 v 3.54707 c -0.31419,0.66146 -0.86816,1.23197 -1.66191,1.71153 -0.77721,0.47955 -1.67845,0.71933 -2.70371,0.71933 -0.82682,0 -1.50482,-0.23151 -2.03399,-0.69453 -0.51263,-0.47956 -0.76894,-1.09967 -0.76894,-1.86035 0,-0.99219 0.29766,-1.81074 0.89297,-2.45567 0.59531,-0.64492 1.56269,-0.96738 2.90215,-0.96738 z m -59.70489,7.26778 c 0.11576,0.77721 0.28112,1.52135 0.4961,2.23242 0.0896,0.27517 0.18741,0.5357 0.28939,0.78858 h -3.02514 c 0.87219,-0.8036 1.61963,-1.80914 2.23965,-3.021 z m 63.30157,0 c 0.11575,0.77721 0.28112,1.52135 0.49609,2.23242 0.0896,0.27517 0.18742,0.5357 0.28939,0.78858 h -3.02514 c 0.87219,-0.8036 1.61963,-1.80914 2.23966,-3.021 z m 28.153317,1.73632 v 1.28468 h -1.23559 c 0.4429,-0.3682 0.85483,-0.79632 1.23559,-1.28468 z"
         style="font-style:normal;font-variant:normal;font-weight:normal;font-stretch:normal;font-size:50.79999924px;line-height:1.25;font-family:Roboto;-inkscape-font-specification:Roboto;letter-spacing:0px;word-spacing:0px;display:inline;fill:none;fill-opacity:1;stroke:#ff0000;stroke-width:0.2;stroke-miterlimit:4;stroke-dasharray:none;stroke-opacity:1" />
    </g>
    <path
       style="font-style:normal;font-variant:normal;font-weight:normal;font-stretch:normal;font-size:50.79999924px;line-height:1.25;font-family:Roboto;-inkscape-font-specification:Roboto;letter-spacing:0px;word-spacing:0px;display:inline;fill:none;fill-opacity:1;stroke:#ff0000;stroke-width:0.99999994;stroke-opacity:1"
       d="M -138.86523 1105.3496 C -192.23676 1105.3496 -235.79688 1148.9098 -235.79688 1202.2812 L -235.79688 1365.332 C -235.79688 1418.7036 -192.23676 1462.2559 -138.86523 1462.2559 L 132.18555 1462.2559 L 132.18555 1463.709 L 163.87305 1463.709 L 163.87305 1462.2559 L 299.23047 1462.2559 C 319.67179 1538.3648 346.25448 1599.1213 374.43164 1655.8906 C 422.71572 1566.3349 431.72798 1516.0496 444.25 1462.2559 L 1026.0488 1462.2559 C 1079.4204 1462.2559 1122.9805 1418.7036 1122.9805 1365.332 L 1122.9805 1202.2812 C 1122.9805 1148.9098 1079.4204 1105.3496 1026.0488 1105.3496 L -138.86523 1105.3496 z M -138.86523 1143.1445 L 1026.0488 1143.1445 C 1059.1355 1143.1445 1085.1836 1169.1946 1085.1836 1202.2812 L 1085.1836 1365.332 C 1085.1836 1395.3703 1063.7125 1419.6003 1034.998 1423.8105 L 1034.998 1357.8652 C 1036.123 1355.4277 1037.8418 1353.5527 1040.1543 1352.2402 C 1042.4668 1350.8652 1045.4355 1350.1777 1049.0605 1350.1777 L 1059.373 1350.2715 L 1062.373 1322.5215 C 1061.123 1322.1465 1059.9355 1321.8652 1058.8105 1321.6777 C 1057.6855 1321.4902 1056.4043 1321.3965 1054.9668 1321.3965 C 1050.2793 1321.3965 1046.1855 1322.8652 1042.6855 1325.8027 C 1039.1855 1328.7402 1036.373 1332.8652 1034.248 1338.1777 L 1033.123 1323.2715 L 1003.3105 1323.2715 L 1003.3105 1424.4609 L 967.0293 1424.4609 C 968.3838 1424.1376 969.73044 1423.791 971.06055 1423.3965 C 978.43555 1421.209 984.31055 1418.5215 988.68555 1415.334 L 981.0918 1396.0215 C 975.9043 1398.209 971.2793 1399.8027 967.2168 1400.8027 C 963.2168 1401.8027 958.18555 1402.3027 952.12305 1402.3027 C 945.68555 1402.3027 940.74805 1400.6777 937.31055 1397.4277 C 933.87305 1394.1152 931.9043 1389.8027 931.4043 1384.4902 L 931.5918 1383.9277 L 989.7168 1383.9277 L 989.7168 1367.334 C 989.7168 1353.084 985.93555 1341.8652 978.37305 1333.6777 C 970.87305 1325.4902 960.2793 1321.3965 946.5918 1321.3965 C 931.0293 1321.334 919.12305 1326.1777 910.87305 1335.9277 C 902.68555 1345.6777 898.5918 1358.3027 898.5918 1373.8027 L 898.5918 1377.3652 C 898.5918 1391.6152 902.93555 1403.3965 911.62305 1412.709 C 916.89765 1418.3227 923.38439 1422.2312 931.06641 1424.4609 L 889.08008 1424.4609 C 889.12668 1424.4491 889.17006 1424.4396 889.2168 1424.4277 L 887.06055 1400.9902 C 885.56055 1401.3652 884.31055 1401.6152 883.31055 1401.7402 C 882.37305 1401.8652 881.0918 1401.9277 879.4668 1401.9277 C 876.9668 1401.9277 874.9668 1401.1465 873.4668 1399.584 C 872.0293 1397.959 871.31055 1395.334 871.31055 1391.709 L 871.31055 1345.209 L 887.3418 1345.209 L 887.3418 1323.2715 L 871.31055 1323.2715 L 871.31055 1298.0527 L 839.62305 1298.0527 L 839.62305 1323.2715 L 825.4668 1323.2715 L 825.4668 1345.209 L 839.62305 1345.209 L 839.62305 1391.8965 C 839.62305 1403.959 842.31055 1412.7715 847.68555 1418.334 C 850.32421 1421.0333 853.55694 1423.0715 857.37305 1424.4609 L 817.5918 1424.4609 L 817.5918 1363.6777 C 817.5918 1348.9902 814.7793 1338.2715 809.1543 1331.5215 C 803.5918 1324.7715 795.8418 1321.3965 785.9043 1321.3965 C 779.9043 1321.3965 774.4668 1322.834 769.5918 1325.709 C 764.7168 1328.5215 760.62305 1332.459 757.31055 1337.5215 L 756.0918 1323.2715 L 726.37305 1323.2715 L 726.37305 1424.4609 L 690.6543 1424.4609 C 692.0088 1424.1376 693.35544 1423.791 694.68555 1423.3965 C 702.06055 1421.209 707.93555 1418.5215 712.31055 1415.334 L 704.7168 1396.0215 C 699.5293 1398.209 694.9043 1399.8027 690.8418 1400.8027 C 686.8418 1401.8027 681.81055 1402.3027 675.74805 1402.3027 C 669.31055 1402.3027 664.37305 1400.6777 660.93555 1397.4277 C 657.49805 1394.1152 655.5293 1389.8027 655.0293 1384.4902 L 655.2168 1383.9277 L 713.3418 1383.9277 L 713.3418 1367.334 C 713.3418 1353.084 709.56055 1341.8652 701.99805 1333.6777 C 694.49805 1325.4902 683.9043 1321.3965 670.2168 1321.3965 C 654.6543 1321.334 642.74805 1326.1777 634.49805 1335.9277 C 626.31055 1345.6777 622.2168 1358.3027 622.2168 1373.8027 L 622.2168 1377.3652 C 622.2168 1391.6152 626.56055 1403.3965 635.24805 1412.709 C 640.52265 1418.3227 647.00939 1422.2312 654.69141 1424.4609 L 608.3418 1424.4609 L 608.3418 1364.8027 C 608.3418 1350.0527 605.49805 1339.1465 599.81055 1332.084 C 594.18555 1324.959 586.43555 1321.3965 576.56055 1321.3965 C 569.99805 1321.3965 564.24805 1322.8652 559.31055 1325.8027 C 554.43555 1328.6777 550.43555 1332.7715 547.31055 1338.084 C 544.99805 1332.459 541.56055 1328.2715 536.99805 1325.5215 C 532.43555 1322.7715 526.99805 1321.3965 520.68555 1321.3965 C 514.43555 1321.3965 508.87305 1322.7402 503.99805 1325.4277 C 499.18555 1328.0527 495.18555 1331.8027 491.99805 1336.6777 L 490.87305 1323.2715 L 461.06055 1323.2715 L 461.06055 1424.4609 L 441.74805 1424.4609 L 441.74805 1323.2715 L 409.9668 1323.2715 L 409.9668 1424.4609 L 372.37305 1424.4609 L 372.37305 1357.8652 C 373.49805 1355.4277 375.2168 1353.5527 377.5293 1352.2402 C 379.8418 1350.8652 382.81055 1350.1777 386.43555 1350.1777 L 396.74805 1350.2715 L 399.74805 1322.5215 C 398.49805 1322.1465 397.31055 1321.8652 396.18555 1321.6777 C 395.06055 1321.4902 393.7793 1321.3965 392.3418 1321.3965 C 387.6543 1321.3965 383.56055 1322.8652 380.06055 1325.8027 C 376.56055 1328.7402 373.74805 1332.8652 371.62305 1338.1777 L 370.49805 1323.2715 L 340.68555 1323.2715 L 340.68555 1424.4609 L 304.4043 1424.4609 C 305.7588 1424.1376 307.10544 1423.791 308.43555 1423.3965 C 315.81055 1421.209 321.68555 1418.5215 326.06055 1415.334 L 318.4668 1396.0215 C 313.2793 1398.209 308.6543 1399.8027 304.5918 1400.8027 C 300.5918 1401.8027 295.56055 1402.3027 289.49805 1402.3027 C 283.06055 1402.3027 278.12305 1400.6777 274.68555 1397.4277 C 271.24805 1394.1152 269.2793 1389.8027 268.7793 1384.4902 L 268.9668 1383.9277 L 327.0918 1383.9277 L 327.0918 1367.334 C 327.0918 1353.084 323.31055 1341.8652 315.74805 1333.6777 C 308.24805 1325.4902 297.6543 1321.3965 283.9668 1321.3965 C 268.4043 1321.334 256.49805 1326.1777 248.24805 1335.9277 C 240.06055 1345.6777 235.9668 1358.3027 235.9668 1373.8027 L 235.9668 1377.3652 C 235.9668 1391.6152 240.31055 1403.3965 248.99805 1412.709 C 254.27265 1418.3227 260.75939 1422.2312 268.44141 1424.4609 L 200.38672 1424.4609 C 206.53796 1422.2561 211.68492 1418.4098 215.81055 1412.8965 C 222.68555 1403.6465 226.12305 1391.3965 226.12305 1376.1465 L 226.12305 1374.1777 C 226.12305 1358.3652 222.6543 1345.6152 215.7168 1335.9277 C 208.8418 1326.2402 199.12305 1321.3965 186.56055 1321.3965 C 181.49805 1321.3965 176.99805 1322.5215 173.06055 1324.7715 C 169.18555 1327.0215 165.8418 1330.209 163.0293 1334.334 L 162.0918 1323.2715 L 132.18555 1323.2715 L 132.18555 1424.4609 L 123.50781 1424.4609 L 93.185547 1373.4277 L 122.62305 1323.2715 L 87.091797 1323.2715 L 74.248047 1353.1777 L 73.685547 1353.1777 L 61.310547 1323.2715 L 25.966797 1323.2715 L 55.498047 1373.4277 L 25.175781 1424.4609 L 17.529297 1424.4609 L 17.529297 1400.334 L -40.126953 1400.334 L -40.126953 1366.3027 L 7.9667969 1366.3027 L 7.9667969 1341.9277 L -40.126953 1341.9277 L -40.126953 1312.584 L 17.623047 1312.584 L 17.623047 1288.209 L -71.814453 1288.209 L -71.814453 1424.4609 L -138.86523 1424.4609 C -171.95193 1424.4609 -198.00195 1398.4187 -198.00195 1365.332 L -198.00195 1202.2812 C -198.00195 1169.1946 -171.95193 1143.1445 -138.86523 1143.1445 z M 409.9668 1278.459 L 409.9668 1299.7402 L 441.74805 1299.7402 L 441.74805 1278.459 L 409.9668 1278.459 z M 285.4668 1279.7715 L 266.1543 1304.709 L 294.0918 1304.709 L 320.43555 1280.334 L 320.24805 1279.7715 L 285.4668 1279.7715 z M 178.7793 1345.7715 C 184.2793 1345.7715 188.2793 1348.3652 190.7793 1353.5527 C 193.2793 1358.7402 194.5293 1365.6152 194.5293 1374.1777 L 194.5293 1376.1465 C 194.5293 1384.3965 193.31055 1390.834 190.87305 1395.459 C 188.49805 1400.0215 184.5293 1402.3027 178.9668 1402.3027 C 175.3418 1402.3027 172.2793 1401.7715 169.7793 1400.709 C 167.3418 1399.6465 165.37305 1398.0215 163.87305 1395.834 L 163.87305 1353.459 C 165.31055 1350.959 167.24805 1349.0527 169.68555 1347.7402 C 172.18555 1346.4277 175.2168 1345.7715 178.7793 1345.7715 z M 283.9668 1345.7715 C 288.4043 1345.7715 291.5293 1347.1152 293.3418 1349.8027 C 295.2168 1352.4902 296.1543 1356.459 296.1543 1361.709 L 296.1543 1364.1465 L 268.7793 1364.1465 L 268.5918 1363.6777 C 268.9668 1358.1777 270.3418 1353.834 272.7168 1350.6465 C 275.1543 1347.3965 278.9043 1345.7715 283.9668 1345.7715 z M 506.5293 1345.7715 C 510.7168 1345.7715 513.81055 1347.1152 515.81055 1349.8027 C 517.81055 1352.4902 518.81055 1357.4902 518.81055 1364.8027 L 518.81055 1424.4609 L 492.74805 1424.4609 L 492.74805 1351.959 C 494.37305 1350.0215 496.3418 1348.5215 498.6543 1347.459 C 501.0293 1346.334 503.6543 1345.7715 506.5293 1345.7715 z M 564.37305 1345.7715 C 568.43555 1345.7715 571.4668 1347.1465 573.4668 1349.8965 C 575.5293 1352.584 576.56055 1357.5527 576.56055 1364.8027 L 576.56055 1424.4609 L 550.49805 1424.4609 L 550.49805 1357.0215 C 550.49805 1356.2715 550.4668 1355.5215 550.4043 1354.7715 C 550.3418 1353.959 550.31055 1353.0215 550.31055 1351.959 C 551.93555 1350.0215 553.9043 1348.5215 556.2168 1347.459 C 558.5918 1346.334 561.31055 1345.7715 564.37305 1345.7715 z M 670.2168 1345.7715 C 674.6543 1345.7715 677.7793 1347.1152 679.5918 1349.8027 C 681.4668 1352.4902 682.4043 1356.459 682.4043 1361.709 L 682.4043 1364.1465 L 655.0293 1364.1465 L 654.8418 1363.6777 C 655.2168 1358.1777 656.5918 1353.834 658.9668 1350.6465 C 661.4043 1347.3965 665.1543 1345.7715 670.2168 1345.7715 z M 773.81055 1345.7715 C 777.74805 1345.7715 780.74805 1347.1465 782.81055 1349.8965 C 784.87305 1352.584 785.9043 1357.1465 785.9043 1363.584 L 785.9043 1424.4609 L 757.9668 1424.4609 L 757.9668 1352.6152 C 759.7793 1350.4277 762.0293 1348.7402 764.7168 1347.5527 C 767.4043 1346.3652 770.43555 1345.7715 773.81055 1345.7715 z M 946.5918 1345.7715 C 951.0293 1345.7715 954.1543 1347.1152 955.9668 1349.8027 C 957.8418 1352.4902 958.7793 1356.459 958.7793 1361.709 L 958.7793 1364.1465 L 931.4043 1364.1465 L 931.2168 1363.6777 C 931.5918 1358.1777 932.9668 1353.834 935.3418 1350.6465 C 937.7793 1347.3965 941.5293 1345.7715 946.5918 1345.7715 z M 74.060547 1393.8652 L 74.623047 1393.8652 L 88.013672 1424.4609 L 60.669922 1424.4609 L 74.060547 1393.8652 z M 163.87305 1415.709 C 166.68555 1419.2715 169.9668 1421.9902 173.7168 1423.8652 C 174.14797 1424.0773 174.58844 1424.2729 175.0332 1424.4609 L 163.87305 1424.4609 L 163.87305 1415.709 z "
       transform="matrix(0.26458333,0,0,0.26458333,-36.567027,-51.466861)"
       id="text2494" />
  </g>
  <g
     inkscape:groupmode="layer"
     id="layer2"
     inkscape:label="gravure"
     style="display:inline"
     transform="translate(16.450011,23.711836)">
    <path
       style="color:#000000;font-style:normal;font-variant:normal;font-weight:normal;font-stretch:normal;font-size:medium;line-height:normal;font-family:sans-serif;font-variant-ligatures:normal;font-variant-position:normal;font-variant-caps:normal;font-variant-numeric:normal;font-variant-alternates:normal;font-feature-settings:normal;text-indent:0;text-align:start;text-decoration:none;text-decoration-line:none;text-decoration-style:solid;text-decoration-color:#000000;letter-spacing:normal;word-spacing:normal;text-transform:none;writing-mode:lr-tb;direction:ltr;text-orientation:mixed;dominant-baseline:auto;baseline-shift:baseline;text-anchor:start;white-space:normal;shape-padding:0;clip-rule:nonzero;display:inline;overflow:visible;visibility:visible;opacity:1;isolation:auto;mix-blend-mode:normal;color-interpolation:sRGB;color-interpolation-filters:linearRGB;solid-color:#000000;solid-opacity:1;vector-effect:none;fill:none;fill-opacity:1;fill-rule:nonzero;stroke:#0000ff;stroke-width:0.75590551;stroke-linecap:butt;stroke-linejoin:miter;stroke-miterlimit:4;stroke-dasharray:none;stroke-dashoffset:0;stroke-opacity:1;color-rendering:auto;image-rendering:auto;shape-rendering:auto;text-rendering:auto;enable-background:accumulate"
       d="m 136.15625,229.91992 v 3.64063 H 167.75 v -3.64063 m 21.375,0 v 3.64063 h 31.59375 v -3.64063 m 27.9375,0 v 3.64063 h 31.6875 v -3.64063 m 30.78125,0 c 7.02085,3.73388 15.56829,5.60938 25.65625,5.60938 10.61593,0 19.55659,-1.87339 26.83398,-5.60938 m 32.32227,0 v 37.79688 m 31.6875,0 v -37.79688 m 5.39844,0 c 1.40168,1.07637 2.88035,2.0144 4.44531,2.79688 3.8125,1.875 8.15625,2.8125 13.03125,2.8125 7.96871,0 14.78801,-1.87556 20.4707,-5.60938 m 34.37305,0 v 3.64063 H 537.125 v -3.64063 m 19.3125,0 v 3.64063 h 31.6875 v -3.64063 m 54.08789,0 c 7.08056,3.73606 15.48618,5.60938 25.22461,5.60938 8.125,0 15.875,-1.09375 23.25,-3.28125 2.42773,-0.72009 4.67665,-1.49968 6.7793,-2.32813 m 25.4707,0 v 3.64063 h 31.6875 v -3.64063"
       transform="scale(0.26458333)"
       id="path845"
       inkscape:connector-curvature="0"
       sodipodi:nodetypes="cccccccccccccscccccccsccccccccccssccccc" />
    <path
       style="font-style:normal;font-variant:normal;font-weight:normal;font-stretch:normal;font-size:50.79999924px;line-height:1.25;font-family:Roboto;-inkscape-font-specification:Roboto;letter-spacing:0px;word-spacing:0px;display:inline;fill:none;fill-opacity:1;stroke:#0000ff;stroke-width:0.75590551;stroke-miterlimit:4;stroke-dasharray:none;stroke-opacity:1"
       d="m 79.931641,872.37695 v 4.33203 h 31.687499 v -4.33203 m 93.01172,0 c 5.71729,4.19992 13.24412,6.30078 22.58203,6.30078 6.5,0 11.75,-1.59375 15.75,-4.78125 0.60066,-0.48052 1.18194,-0.99255 1.75391,-1.51953 m 11.43359,0 c 0.61052,1.51404 1.27205,2.93563 2,4.23828 l 31.3125,0.0937 c -0.56591,-1.44403 -1.07408,-2.88799 -1.55469,-4.33203 m 13.64844,0 v 4.33203 h 31.6875 v -4.33203 m 52.71094,0 c 5.29392,4.19802 12.47164,6.30078 21.53906,6.30078 3.5,0 6.53125,-0.1875 9.09375,-0.5625 2.5625,-0.3125 5.4375,-0.875 8.625,-1.6875 l -0.37305,-4.05078 m 19.04102,0 c 5.71729,4.19992 13.24412,6.30078 22.58203,6.30078 6.5,0 11.75,-1.59375 15.75,-4.78125 0.60066,-0.48052 1.18194,-0.99255 1.75391,-1.51953 m 11.43359,0 c 0.61052,1.51404 1.27205,2.93563 2,4.23828 l 31.3125,0.0937 c -0.56591,-1.44403 -1.07408,-2.88799 -1.55469,-4.33203 m 27.29102,0 c 5.86657,4.19414 13.00286,6.30078 21.41992,6.30078 4.875,0 9.1875,-0.9375 12.9375,-2.8125 1.90419,-0.93648 3.69101,-2.09965 5.36133,-3.48828 m 4.66992,0 v 3.01953 c 0,5.8125 -1.65625,10.0625 -4.96875,12.75 -3.25,2.6875 -8.25,4.03125 -15,4.03125 -5.375,0 -10.15625,-0.5 -14.34375,-1.5 -4.125,-0.9375 -8.46875,-2.40625 -13.03125,-4.40625 l -5.4375,23.4375 c 0.34107,0.15836 0.68612,0.30876 1.0293,0.4629 m 64.58594,0 c 1.82842,-1.07266 3.55407,-2.25385 5.16601,-3.55665 9.1875,-7.3125 13.78125,-17.65625 13.78125,-31.03125 v -3.20703 m 36.7168,0 c 7.33427,4.19383 16.15289,6.30078 26.4707,6.30078 8.125,0 15.875,-1.09375 23.25,-3.28125 3.09114,-0.91686 5.90268,-1.92699 8.4668,-3.01953 m 23.7832,0 v 4.33203 h 31.6875 v -4.33203"
       transform="matrix(0.26458333,0,0,0.26458333,-11.625236,-23.711836)"
       id="text872"
       inkscape:connector-curvature="0"
       sodipodi:nodetypes="cccccscccccccccccsccccscccccccscccscsccccccsccscccccc" />
    <path
       style="font-style:normal;font-variant:normal;font-weight:normal;font-stretch:normal;font-size:50.79999924px;line-height:1.25;font-family:Roboto;-inkscape-font-specification:Roboto;letter-spacing:0px;word-spacing:0px;display:inline;fill:none;fill-opacity:1;stroke:#0000ff;stroke-width:0.75590551;stroke-miterlimit:4;stroke-dasharray:none;stroke-opacity:1"
       d="m 1034.998,1423.8105 c -2.9141,0.4273 -5.9007,0.6504 -8.9492,0.6504 h -22.7383 v 0.2481 h 31.6875 z m -1106.812453,0.6504 v 0.2481 h 89.34375 v -0.2481 z m 96.990234,0 -0.146484,0.2481 h 35.53125 l 0.109375,-0.2481 z m 62.837891,0 0.109375,0.2481 H 123.6543 l -0.14649,-0.2481 z m 44.171878,0 v 37.795 m 31.6875,0 v -37.795 m 11.16015,0 c 3.4879,1.4749 7.39118,2.2168 11.71485,2.2168 4.99886,0 9.5394,-0.7474 13.63867,-2.2168 m 68.05469,0 c 5.06161,1.4692 10.63738,2.2168 16.74414,2.2168 6.65963,0 13.06298,-0.7472 19.21875,-2.2168 m 36.28125,0 v 0.2481 h 31.6875 v -0.2481 z m 69.28125,0 v 0.2481 h 31.78125 v -0.2481 z m 51.09375,0 v 0.2481 h 31.6875 v -0.2481 z m 57.75,0 v 0.2481 h 31.6875 v -0.2481 z m 57.75,0 v 0.2481 h 31.78125 v -0.2481 z m 78.13086,0 c 5.06161,1.4692 10.63738,2.2168 16.74414,2.2168 6.65963,0 13.06298,-0.7472 19.21875,-2.2168 m 35.71875,0 v 0.2481 h 31.59375 v -0.2481 z m 59.53125,0 v 0.2481 h 31.6875 v -0.2481 z m 71.46875,0 c 4.04775,1.4738 8.75252,2.2168 14.125,2.2168 3.5,0 6.53125,-0.1875 9.09375,-0.5625 2.52493,-0.3079 5.35654,-0.8609 8.48828,-1.6543 m 41.98633,0 c 5.06161,1.4692 10.63738,2.2168 16.74414,2.2168 6.65963,0 13.06298,-0.7472 19.21875,-2.2168"
       transform="matrix(0.26458333,0,0,0.26458333,-16.450011,-23.711836)"
       id="text2541"
       inkscape:connector-curvature="0"
       sodipodi:nodetypes="csccccccccccccccccccccccccsccscccccccccccccccccccccccccccscacccaccccccscccsc" />
  </g>
</svg>
