<?xml version="1.0" encoding="UTF-8" standalone="no"?>
<!-- Created with Inkscape (http://www.inkscape.org/) -->

<svg
   xmlns:dc="http://purl.org/dc/elements/1.1/"
   xmlns:cc="http://creativecommons.org/ns#"
   xmlns:rdf="http://www.w3.org/1999/02/22-rdf-syntax-ns#"
   xmlns:svg="http://www.w3.org/2000/svg"
   xmlns="http://www.w3.org/2000/svg"
   xmlns:sodipodi="http://sodipodi.sourceforge.net/DTD/sodipodi-0.dtd"
   xmlns:inkscape="http://www.inkscape.org/namespaces/inkscape"
   width="307.08771mm"
   height="182.66998mm"
   viewBox="0 0 307.08771 182.66998"
   version="1.1"
   id="svg8"
   inkscape:version="0.92.3 (2405546, 2018-03-11)"
   sodipodi:docname="travaux.svg">
  <title
     id="title1915">Signalétique Travaux</title>
  <defs
     id="defs2" />
  <sodipodi:namedview
     id="base"
     pagecolor="#ffffff"
     bordercolor="#666666"
     borderopacity="1.0"
     inkscape:pageopacity="0.0"
     inkscape:pageshadow="2"
     inkscape:zoom="0.52470758"
     inkscape:cx="341.7331"
     inkscape:cy="234.16389"
     inkscape:document-units="mm"
     inkscape:current-layer="layer1"
     showgrid="false"
     fit-margin-top="0"
     fit-margin-left="0"
     fit-margin-right="0"
     fit-margin-bottom="0"
     inkscape:window-width="1920"
     inkscape:window-height="1017"
     inkscape:window-x="-8"
     inkscape:window-y="-8"
     inkscape:window-maximized="1" />
  <metadata
     id="metadata5">
    <rdf:RDF>
      <cc:Work
         rdf:about="">
        <dc:format>image/svg+xml</dc:format>
        <dc:type
           rdf:resource="http://purl.org/dc/dcmitype/StillImage" />
        <dc:title>Signalétique Travaux</dc:title>
        <cc:license
           rdf:resource="http://creativecommons.org/licenses/by/4.0/" />
        <dc:creator>
          <cc:Agent>
            <dc:title>Loïc Fejoz</dc:title>
          </cc:Agent>
        </dc:creator>
        <dc:rights>
          <cc:Agent>
            <dc:title>Cesi</dc:title>
          </cc:Agent>
        </dc:rights>
        <dc:subject>
          <rdf:Bag>
            <rdf:li>labcesi</rdf:li>
            <rdf:li>signalétique</rdf:li>
            <rdf:li>label</rdf:li>
            <rdf:li>btp</rdf:li>
          </rdf:Bag>
        </dc:subject>
      </cc:Work>
      <cc:License
         rdf:about="http://creativecommons.org/licenses/by/4.0/">
        <cc:permits
           rdf:resource="http://creativecommons.org/ns#Reproduction" />
        <cc:permits
           rdf:resource="http://creativecommons.org/ns#Distribution" />
        <cc:requires
           rdf:resource="http://creativecommons.org/ns#Notice" />
        <cc:requires
           rdf:resource="http://creativecommons.org/ns#Attribution" />
        <cc:permits
           rdf:resource="http://creativecommons.org/ns#DerivativeWorks" />
      </cc:License>
    </rdf:RDF>
  </metadata>
  <g
     inkscape:label="Calque 1"
     inkscape:groupmode="layer"
     id="layer1"
     transform="translate(137.29084,46.601805)">
    <path
       style="font-style:normal;font-variant:normal;font-weight:normal;font-stretch:normal;font-size:50.79999924px;line-height:1.25;font-family:Roboto;-inkscape-font-specification:Roboto;letter-spacing:0px;word-spacing:0px;fill:none;fill-opacity:1;stroke:#ff0000;stroke-width:0.75590552;stroke-opacity:1;stroke-miterlimit:4;stroke-dasharray:none"
       d="m -325.88867,-176.13281 a 18.899528,18.899528 0 0 0 -18.625,15.67969 l -38.94531,225.347651 a 18.899528,18.899528 0 0 0 18.61718,22.115235 h 72.33399 v 15.066404 h -29.9043 c -32.10553,10e-6 -58.54492,26.43353 -58.54492,58.53906 0,17.69864 8.04511,33.66443 20.63476,44.43946 h -79.67578 c -43.3824,0 -78.89648,35.51407 -78.89648,78.89648 v 151.42578 c 0,43.3824 35.51408,78.89649 78.89648,78.89649 H 562.85352 c 43.3824,0 78.8984,-35.51409 78.89843,-78.89649 V 283.95117 c 0,-43.38241 -35.51603,-78.89648 -78.89843,-78.89648 H 223.01953 a 75.116112,84.853387 53.265625 0 0 57.98633,-44.44531 75.116112,84.853387 53.265625 0 0 5.16992,-69.052739 c -0.65022,-2.178215 -1.60366,-4.306675 -2.88672,-6.324219 L 148.17773,-127.22266 c -0.19536,-0.30719 -0.39933,-0.60464 -0.60546,-0.90039 -0.71566,-3.92426 -2.3815,-7.73787 -5.04493,-11.09179 -8.62644,-10.86285 -24.31684,-12.66356 -35.17968,-4.03711 L -82.048828,7.1523438 -149.73438,-164.17969 a 18.899528,18.899528 0 0 0 -17.57617,-11.95312 z m 15.9082,37.79687 h 129.81055 l 74.09961,187.550784 h -236.32422 z m 425.27344,52.720706 123.30469,193.892574 -28.04493,20.92969 -75.27539,38.44336 a 75.116112,84.853387 53.265625 0 0 44.64063,37.4043 H -82.804688 c 12.589656,-10.77503 20.634766,-26.74082 20.634766,-44.43946 0,-32.10553 -26.441342,-58.53906 -58.546878,-58.53906 h -29.90429 V 87.009766 h 72.335934 a 18.899528,18.899528 0 0 0 17.576172,-25.84375 l -2.310547,-5.845704 c 1.508364,-0.761316 2.962457,-1.68548 4.339843,-2.779296 z M -322.41211,139.87109 h 201.69531 c 11.82071,0 20.751956,8.92344 20.751956,20.74414 0,11.82071 -8.931246,20.75 -20.751956,20.75 h -201.69531 c -11.8207,0 -20.75,-8.92929 -20.75,-20.75 0,-11.8207 8.9293,-20.74414 20.75,-20.74414 z M -439.99805,242.84961 H 562.85352 c 23.09756,0 41.10351,18.00398 41.10351,41.10156 v 151.42578 c 0,23.0976 -18.00595,41.10157 -41.10351,41.10157 h -32.16797 l -30.27539,-50.95508 29.4375,-50.15625 h -35.53125 l -12.84375,29.90625 h -0.5625 l -12.375,-29.90625 h -35.34375 l 29.53125,50.15625 -30.27539,50.95508 h -9.19336 V 375.36719 h -31.6875 v 73.40625 c -1.8125,1.875 -4,3.28125 -6.5625,4.21875 -2.5625,0.9375 -5.53125,1.40625 -8.90625,1.40625 -4.25,0 -7.40625,-1.46875 -9.46875,-4.40625 -2,-2.9375 -3,-8.375 -3,-16.3125 v -58.3125 h -31.59375 v 58.125 c 0,15.4375 2.96875,26.84375 8.90625,34.21875 3.27218,4.02206 7.21949,6.939 11.83007,8.76758 h -32.19921 c -1.74987,-4.51639 -3.09038,-9.03245 -4.00586,-13.54883 -0.875,-4.625 -1.3125,-9.625 -1.3125,-15 v -38.25 c 0,-11.625 -3.90625,-20.5625 -11.71875,-26.8125 -7.75,-6.25 -17.90625,-9.375 -30.46875,-9.375 -13.375,0 -24.15625,3.125 -32.34375,9.375 -8.125,6.1875 -11.96875,13.90625 -11.53125,23.15625 l 0.1875,0.5625 30.75,0.0937 c 0,-3.625 0.875,-6.28125 2.625,-7.96875 1.8125,-1.75 4.5625,-2.625 8.25,-2.625 4.25,0 7.40625,1.15625 9.46875,3.46875 2.0625,2.3125 3.09375,5.625 3.09375,9.9375 v 7.21875 h -13.03125 c -15.375,0 -26.84375,2.75 -34.40625,8.25 -7.5625,5.4375 -11.34375,13.1875 -11.34375,23.25 0,9.4375 2.9375,16.90625 8.8125,22.40625 2.7934,2.55816 6.11243,4.50669 9.94336,5.86133 h -53.61914 l 32.89453,-101.11133 h -33.28125 l -13.40625,59.625 -2.0625,10.875 -0.5625,-0.0937 -1.875,-10.78125 -13.59375,-59.625 h -33.375 l 32.89453,101.11133 h -34.60742 c -1.74987,-4.51639 -3.09038,-9.03245 -4.00586,-13.54883 -0.875,-4.625 -1.3125,-9.625 -1.3125,-15 v -38.25 c 0,-11.625 -3.90625,-20.5625 -11.71875,-26.8125 -7.750004,-6.25 -17.906254,-9.375 -30.468754,-9.375 -13.375,0 -24.15625,3.125 -32.34375,9.375 -8.125,6.1875 -11.96875,13.90625 -11.53125,23.15625 l 0.1875,0.5625 30.75,0.0937 c 0,-3.625 0.875,-6.28125 2.625,-7.96875 1.8125,-1.75 4.5625,-2.625 8.25,-2.625 4.25,0 7.40625,1.15625 9.46875,3.46875 2.0625,2.3125 3.09375,5.625 3.09375,9.9375 v 7.21875 h -13.03125 c -15.375,0 -26.84375,2.75 -34.40625,8.25 -7.5625,5.4375 -11.34375,13.1875 -11.34375,23.25 0,9.4375 2.9375,16.90625 8.8125,22.40625 2.7934,2.55816 6.11243,4.50669 9.94336,5.86133 H -3.0273438 v -66.51758 c 1.125,-2.4375 2.84375008,-4.3125 5.15625,-5.625 2.3125,-1.375 5.2812501,-2.0625 8.9062498,-2.0625 l 10.3125,0.0937 3,-27.75 c -1.25,-0.375 -2.4375,-0.65625 -3.5625,-0.84375 -1.125,-0.1875 -2.40625,-0.28125 -3.84375,-0.28125 -4.6875,0 -8.7812498,1.46875 -12.2812498,4.40625 -3.4999999,2.9375 -6.3125,7.0625 -8.4375,12.375 l -1.125,-14.90625 H -34.714844 v 101.11133 h -41.25 V 364.67969 h 36.09375 v -24.375 H -143.08984 v 24.375 h 35.4375 v 111.79883 h -332.34571 c -23.09756,0 -41.10156,-18.00397 -41.10156,-41.10157 V 283.95117 c 0,-23.09758 18.004,-41.10156 41.10156,-41.10156 z M 73.191406,433.58594 h 12.75 v 13.40625 c -1.1875,2.5 -3.28125,4.65625 -6.28125,6.46875 -2.9375,1.8125 -6.34375,2.71875 -10.21875,2.71875 -3.125,0 -5.6875,-0.875 -7.6875,-2.625 -1.9375,-1.8125 -2.90625,-4.15625 -2.90625,-7.03125 0,-3.75 1.125,-6.84375 3.375,-9.28125 2.25,-2.4375 5.90625,-3.65625 10.96875,-3.65625 z m 197.625004,0 h 12.75 v 13.40625 c -1.1875,2.5 -3.28125,4.65625 -6.28125,6.46875 -2.9375,1.8125 -6.34375,2.71875 -10.21875,2.71875 -3.125,0 -5.6875,-0.875 -7.6875,-2.625 -1.9375,-1.8125 -2.90625,-4.15625 -2.90625,-7.03125 0,-3.75 1.125,-6.84375 3.375,-9.28125 2.25,-2.4375 5.90625,-3.65625 10.96875,-3.65625 z m 210.46875,12.375 h 0.5625 l 13.35742,30.51758 H 467.92773 Z M 86.785156,461.05469 c 0.4375,2.9375 1.0625,5.75 1.875,8.4375 0.844148,2.59274 1.837658,4.91712 2.972656,6.98633 H 72.472656 c 1.479828,-0.68172 2.854055,-1.49845 4.09375,-2.48633 4.0625,-3.25 7.46875,-7.5625 10.21875,-12.9375 z m 197.625004,0 c 0.4375,2.9375 1.0625,5.75 1.875,8.4375 0.84414,2.59274 1.83765,4.91712 2.97265,6.98633 h -19.16015 c 1.47982,-0.68172 2.85405,-1.49845 4.09375,-2.48633 4.0625,-3.25 7.46875,-7.5625 10.21875,-12.9375 z m 109.5,0.5625 3.76172,14.86133 h -19.65821 c 1.44934,-0.59261 2.84626,-1.28792 4.17774,-2.11133 4.8125,-3 8.71875,-7.25 11.71875,-12.75 z"
       transform="scale(0.26458333)"
       id="text817"
       inkscape:connector-curvature="0" />
  </g>
</svg>
