<?xml version="1.0" encoding="UTF-8" standalone="no"?>
<!-- Created with Inkscape (http://www.inkscape.org/) -->

<svg
   xmlns:dc="http://purl.org/dc/elements/1.1/"
   xmlns:cc="http://creativecommons.org/ns#"
   xmlns:rdf="http://www.w3.org/1999/02/22-rdf-syntax-ns#"
   xmlns:svg="http://www.w3.org/2000/svg"
   xmlns="http://www.w3.org/2000/svg"
   xmlns:sodipodi="http://sodipodi.sourceforge.net/DTD/sodipodi-0.dtd"
   xmlns:inkscape="http://www.inkscape.org/namespaces/inkscape"
   width="307.29755mm"
   height="183.69785mm"
   viewBox="0 0 307.29755 183.69784"
   version="1.1"
   id="svg8"
   inkscape:version="0.92.3 (2405546, 2018-03-11)"
   sodipodi:docname="travaux.svg">
  <title
     id="title1915">Signalétique Travaux</title>
  <defs
     id="defs2" />
  <sodipodi:namedview
     id="base"
     pagecolor="#ffffff"
     bordercolor="#666666"
     borderopacity="1.0"
     inkscape:pageopacity="0.0"
     inkscape:pageshadow="2"
     inkscape:zoom="0.84854638"
     inkscape:cx="609.6603"
     inkscape:cy="295.12674"
     inkscape:document-units="mm"
     inkscape:current-layer="layer6"
     showgrid="false"
     fit-margin-top="0"
     fit-margin-left="0"
     fit-margin-right="0"
     fit-margin-bottom="0"
     inkscape:window-width="1920"
     inkscape:window-height="1017"
     inkscape:window-x="-8"
     inkscape:window-y="-8"
     inkscape:window-maximized="1"
     inkscape:measure-start="0,0"
     inkscape:measure-end="0,0" />
  <metadata
     id="metadata5">
    <rdf:RDF>
      <cc:Work
         rdf:about="">
        <dc:format>image/svg+xml</dc:format>
        <dc:type
           rdf:resource="http://purl.org/dc/dcmitype/StillImage" />
        <dc:title>Signalétique Travaux</dc:title>
        <cc:license
           rdf:resource="http://creativecommons.org/licenses/by/4.0/" />
        <dc:creator>
          <cc:Agent>
            <dc:title>Loïc Fejoz</dc:title>
          </cc:Agent>
        </dc:creator>
        <dc:rights>
          <cc:Agent>
            <dc:title>Cesi</dc:title>
          </cc:Agent>
        </dc:rights>
        <dc:subject>
          <rdf:Bag>
            <rdf:li>labcesi</rdf:li>
            <rdf:li>signalétique</rdf:li>
            <rdf:li>label</rdf:li>
            <rdf:li>btp</rdf:li>
          </rdf:Bag>
        </dc:subject>
      </cc:Work>
      <cc:License
         rdf:about="http://creativecommons.org/licenses/by/4.0/">
        <cc:permits
           rdf:resource="http://creativecommons.org/ns#Reproduction" />
        <cc:permits
           rdf:resource="http://creativecommons.org/ns#Distribution" />
        <cc:requires
           rdf:resource="http://creativecommons.org/ns#Notice" />
        <cc:requires
           rdf:resource="http://creativecommons.org/ns#Attribution" />
        <cc:permits
           rdf:resource="http://creativecommons.org/ns#DerivativeWorks" />
      </cc:License>
    </rdf:RDF>
  </metadata>
  <g
     inkscape:groupmode="layer"
     id="layer2"
     inkscape:label="base"
     style="display:none"
     transform="translate(-0.13822835,0.47672119)"
     sodipodi:insensitive="true">
    <rect
       style="fill:none;fill-opacity:1;stroke:#000000;stroke-width:10;stroke-linejoin:round;stroke-miterlimit:4;stroke-dasharray:none;stroke-opacity:1"
       id="rect831"
       width="297.09683"
       height="72.216232"
       x="5.2384825"
       y="105.58945"
       ry="16.623354" />
    <text
       xml:space="preserve"
       style="font-style:normal;font-variant:normal;font-weight:normal;font-stretch:normal;font-size:50.79999924px;line-height:1.25;font-family:Roboto;-inkscape-font-specification:Roboto;letter-spacing:0px;word-spacing:0px;display:inline;fill:#000000;fill-opacity:1;stroke:#ff0000;stroke-width:0.26458332;stroke-opacity:1"
       x="17.14447"
       y="136.30139"
       id="text824"><tspan
         sodipodi:role="line"
         id="tspan822"
         x="17.14447"
         y="136.30139"
         style="font-size:49.38888931px;stroke:#ff0000;stroke-width:0.26458332;stroke-opacity:1">travaux</tspan></text>
    <text
       xml:space="preserve"
       style="font-style:normal;font-variant:normal;font-weight:normal;font-stretch:normal;font-size:50.79999924px;line-height:1.25;font-family:Roboto;-inkscape-font-specification:Roboto;letter-spacing:0px;word-spacing:0px;display:inline;fill:#000000;fill-opacity:1;stroke:#ff0000;stroke-width:0.26458332;stroke-opacity:1"
       x="126.81866"
       y="173.08925"
       id="text828"><tspan
         sodipodi:role="line"
         id="tspan826"
         x="126.81866"
         y="173.08925"
         style="font-size:49.38888931px;stroke:#ff0000;stroke-width:0.26458332;stroke-opacity:1">publics</tspan></text>
    <path
       style="fill:#000000;fill-opacity:1;stroke:none;stroke-width:6.58158684;stroke-linejoin:round;stroke-miterlimit:4;stroke-dasharray:none;stroke-opacity:1"
       id="path847"
       sodipodi:type="arc"
       sodipodi:cx="191.77452"
       sodipodi:cy="82.929535"
       sodipodi:rx="21.889376"
       sodipodi:ry="18.708866"
       sodipodi:start="5.4202846"
       sodipodi:end="2.6593811"
       d="m 206.00779,68.715812 a 21.889376,18.708866 0 0 1 6.60474,19.94228 21.889376,18.708866 0 0 1 -18.96855,12.911948 21.889376,18.708866 0 0 1 -21.26282,-9.964461 l 19.39336,-8.676044 z" />
    <path
       style="fill:none;stroke:#000000;stroke-width:15;stroke-linecap:round;stroke-linejoin:round;stroke-miterlimit:4;stroke-dasharray:none;stroke-opacity:1"
       d="m 116.97107,56.505388 51.78291,-41.092675 35.102,61.329754"
       id="path849"
       inkscape:connector-curvature="0"
       sodipodi:nodetypes="ccc" />
    <path
       style="fill:none;stroke:#000000;stroke-width:10;stroke-linecap:round;stroke-linejoin:round;stroke-miterlimit:4;stroke-dasharray:none;stroke-opacity:1"
       d="M 40.588213,64.966631 51.990176,4.6239326 H 93.212659 L 115.84117,64.966632 Z"
       id="path851"
       inkscape:connector-curvature="0"
       sodipodi:nodetypes="ccccc" />
    <rect
       style="fill:none;fill-opacity:1;stroke:#000000;stroke-width:10;stroke-linecap:round;stroke-linejoin:round;stroke-miterlimit:4;stroke-dasharray:none;stroke-opacity:1"
       id="rect853"
       width="74.685852"
       height="18.172321"
       x="40.871708"
       y="78.824409"
       ry="8.9984541" />
    <rect
       style="fill:#000000;fill-opacity:1;stroke:none;stroke-width:1.05517864;stroke-linecap:round;stroke-linejoin:miter;stroke-miterlimit:4;stroke-dasharray:none;stroke-opacity:1"
       id="rect855"
       width="37.889603"
       height="9.6478148"
       x="59.269833"
       y="66.078316"
       ry="0" />
  </g>
  <g
     inkscape:groupmode="layer"
     id="layer6"
     inkscape:label="découpe"
     style="display:inline"
     sodipodi:insensitive="true">
    <path
       style="color:#000000;font-style:normal;font-variant:normal;font-weight:normal;font-stretch:normal;font-size:medium;line-height:normal;font-family:sans-serif;font-variant-ligatures:normal;font-variant-position:normal;font-variant-caps:normal;font-variant-numeric:normal;font-variant-alternates:normal;font-feature-settings:normal;text-indent:0;text-align:start;text-decoration:none;text-decoration-line:none;text-decoration-style:solid;text-decoration-color:#000000;letter-spacing:normal;word-spacing:normal;text-transform:none;writing-mode:lr-tb;direction:ltr;text-orientation:mixed;dominant-baseline:auto;baseline-shift:baseline;text-anchor:start;white-space:normal;shape-padding:0;clip-rule:nonzero;display:inline;overflow:visible;visibility:visible;opacity:1;isolation:auto;mix-blend-mode:normal;color-interpolation:sRGB;color-interpolation-filters:linearRGB;solid-color:#000000;solid-opacity:1;vector-effect:none;fill:none;fill-opacity:1;fill-rule:nonzero;stroke:#ff0000;stroke-width:0.75590551;stroke-linecap:butt;stroke-linejoin:round;stroke-miterlimit:4;stroke-dasharray:none;stroke-dashoffset:0;stroke-opacity:1;color-rendering:auto;image-rendering:auto;shape-rendering:auto;text-rendering:auto;enable-background:accumulate"
       d="M 195.97656,0.37695312 A 18.899528,18.899528 0 0 0 177.40234,15.767578 L 134.31445,243.83984 a 18.899528,18.899528 0 0 0 18.56641,22.4043 h 70.60937 v 14.57813 H 187.9668 c -28.98391,0 -52.91407,23.92234 -52.91407,52.90625 v 0.66406 c 0,20.78868 12.31252,38.97036 29.96875,47.5918 H 82.103516 c -44.949363,0 -81.72460975,36.77525 -81.72460975,81.7246 v 147.28321 c 0,44.94935 36.77524675,81.73242 81.72460975,81.73242 H 487.54297 v 1.18945 h 30.80664 v -1.18945 h 560.98829 c 44.9493,0 81.7246,-36.78307 81.7246,-81.73242 V 463.70898 c 0,-44.94935 -36.7753,-81.72461 -81.7246,-81.7246 H 751.35938 a 82.731498,70.710674 0 0 0 51.69335,-45.09766 82.731498,70.710674 0 0 0 -7.93164,-58.08203 28.349291,28.349291 0 0 0 -0.5625,-1.03125 L 661.89062,45.974609 A 28.349291,28.349291 0 0 0 635.89258,31.742188 28.349291,28.349291 0 0 0 619.66797,37.847656 L 434.13672,185.07812 369.47266,12.646484 A 18.899528,18.899528 0 0 0 351.77734,0.37695312 Z M 211.64062,38.171875 H 338.68359 L 410.03516,228.44727 H 175.68359 Z m 417.43165,64.591795 112.01367,195.70508 -16.79102,16.76758 -73.29883,32.79101 a 82.731498,70.710674 0 0 0 46.19141,33.95704 H 425.16211 c 17.65409,-8.62144 29.96289,-26.80312 29.96289,-47.5918 v -0.66406 c 0,-28.98391 -23.92234,-52.90625 -52.90625,-52.90625 h -35.52539 v -14.57813 h 70.61133 A 18.899528,18.899528 0 0 0 455,240.70898 l -0.0996,-0.26562 a 28.349291,28.349291 0 0 0 4.29102,-2.87109 z M 187.9668,318.61719 h 214.25195 c 8.69907,0 15.11133,6.41225 15.11133,15.11133 v 0.66406 c 0,8.69907 -6.41226,15.11133 -15.11133,15.11133 H 187.9668 c -8.69908,0 -15.11914,-6.41226 -15.11914,-15.11133 v -0.66406 c 0,-8.69908 6.42006,-15.11133 15.11914,-15.11133 z M 123.97656,419.7793 h 15.03906 v 97.17773 h 30.80665 v -64.98828 c 1.09375,-2.36979 2.7654,-4.19271 5.01367,-5.46875 2.24826,-1.33681 5.1339,-2.00391 8.6582,-2.00391 l 10.02539,0.0899 2.68359,-24.80664 h 29.30079 c -4.01803,1.46104 -7.63593,3.40536 -10.83789,5.84961 -7.89931,6.01562 -11.63629,13.51866 -11.21094,22.51171 l 0.18164,0.54688 29.89648,0.0918 c 0,-3.52431 0.85135,-6.10742 2.55274,-7.74805 1.76215,-1.70139 4.43446,-2.55078 8.01953,-2.55078 4.13194,0 7.20182,1.12283 9.20703,3.37109 2.00521,2.24827 3.00781,5.4694 3.00781,9.66211 v 7.01758 h -12.66992 c -14.94792,0 -26.09874,2.67426 -33.45117,8.02148 -7.35243,5.28646 -11.02734,12.82053 -11.02734,22.60352 0,9.17535 2.8546,16.43793 8.5664,21.78516 5.77257,5.28645 13.82444,7.92968 24.1543,7.92968 6.31944,0 11.42361,-1.54948 15.3125,-4.64843 3.94965,-3.15973 7.26193,-7.35243 9.93554,-12.57813 0.42535,2.8559 1.03234,5.59028 1.82227,8.20313 0.8507,2.61284 1.8533,4.9516 3.00781,7.01757 l 30.44336,0.0918 c -1.76215,-4.49653 -3.10026,-8.99371 -4.01172,-13.49023 -0.85069,-4.49653 -1.27539,-9.35829 -1.27539,-14.58399 v -37.1875 c 0,-11.30208 -3.79709,-19.99001 -11.39257,-26.0664 -3.03106,-2.44441 -6.44811,-4.38854 -10.23633,-5.84961 h 28.93359 l 31.61524,97.17773 h 31.26171 l 31.61524,-97.17773 h 28.71484 c -4.01802,1.46104 -7.63593,3.40536 -10.83789,5.84961 -7.8993,6.01562 -11.63628,13.51866 -11.21094,22.51171 l 0.1836,0.54688 29.89453,0.0918 c 0,-3.52431 0.85134,-6.10742 2.55273,-7.74805 1.76216,-1.70139 4.43642,-2.55078 8.02149,-2.55078 4.13194,0 7.19987,1.12283 9.20508,3.37109 2.0052,2.24827 3.00781,5.4694 3.00781,9.66211 v 7.01758 h -12.66992 c -14.94792,0 -26.09679,2.67426 -33.44922,8.02148 -7.35243,5.28646 -11.0293,12.82053 -11.0293,22.60352 0,9.17535 2.85655,16.43793 8.56836,21.78516 5.77257,5.28645 13.82248,7.92968 24.15234,7.92968 6.31945,0 11.42361,-1.54948 15.3125,-4.64843 3.94966,-3.15973 7.26194,-7.35243 9.93555,-12.57813 0.42535,2.8559 1.03234,5.59028 1.82227,8.20313 0.85069,2.61284 1.85329,4.9516 3.00781,7.01757 l 30.44336,0.0918 c -1.76215,-4.49653 -3.09831,-8.99371 -4.00977,-13.49023 -0.85069,-4.49653 -1.27734,-9.35829 -1.27734,-14.58399 v -37.1875 c 0,-11.30208 -3.79709,-19.99001 -11.39258,-26.0664 -3.03086,-2.44425 -6.44645,-4.38857 -10.23437,-5.84961 h 37.94335 v 55.06836 c 0,15.00868 2.88564,26.09744 8.65821,33.26757 5.83333,7.17014 13.85416,10.75586 24.0625,10.75586 6.07639,0 11.42296,-1.42925 16.04101,-4.28515 4.67882,-2.91667 8.47787,-7.04731 11.39454,-12.39453 l 3.73632,14.76562 h 24.79102 V 419.7793 h 10.51172 l 27.86133,47.32031 -29.62305,49.85742 h 34.54492 l 13.125,-29.98828 h 0.54688 l 13.125,29.98828 h 34.54492 l -29.62305,-49.85742 27.77149,-47.32031 h 392.29102 c 24.6645,0 43.9297,19.26517 43.9297,43.92968 v 147.28321 c 0,24.66451 -19.2652,43.9375 -43.9297,43.9375 h -20.9727 c 4.082,-1.38255 7.7405,-3.23927 10.961,-5.58594 7.8993,-5.77257 11.8496,-13.09527 11.8496,-21.9668 0,-8.62847 -2.8876,-15.28211 -8.6602,-19.96093 -5.7725,-4.73959 -14.7048,-8.29428 -26.7968,-10.66407 -7.6563,-1.45833 -12.7605,-3.09896 -15.3126,-4.92187 -2.4913,-1.82292 -3.7363,-4.0395 -3.7363,-6.65235 0,-2.73437 1.0938,-4.98394 3.2813,-6.74609 2.1875,-1.76215 4.8908,-2.64258 8.1113,-2.64258 4.4358,0 7.6259,1.00261 9.5703,3.00782 1.9445,2.0052 2.918,4.9529 2.918,8.84179 h 29.8945 l 0.1836,-0.54687 c 0.3646,-9.29688 -3.3433,-16.86198 -11.1211,-22.69532 -7.7778,-5.89409 -18.2285,-8.84179 -31.3535,-8.84179 -12.4566,0 -22.3314,3.03884 -29.6231,9.11523 -7.2916,6.01563 -10.93745,13.36741 -10.93745,22.05664 0,8.26389 2.91665,14.76628 8.75005,19.50586 5.8333,4.67882 14.4921,8.14236 25.9765,10.39063 7.2917,1.51909 12.3047,3.25086 15.0391,5.19531 2.7951,1.88368 4.1933,4.04015 4.1933,6.4707 0,2.97743 -1.0627,5.28711 -3.1894,6.92774 -2.1268,1.57986 -5.2567,2.36914 -9.3887,2.36914 -4.9826,0 -8.8418,-1.03364 -11.5762,-3.09961 -2.6736,-2.06597 -4.0698,-5.43837 -4.1914,-10.11719 h -27.89059 l -0.1836,0.54688 c -0.36458,8.38541 3.34332,15.98155 11.12109,22.7871 3.6085,3.13294 7.8162,5.53588 12.6094,7.22657 h -54.40236 c 4.42221,-1.6742 8.39128,-4.04685 11.89648,-7.13477 7.71702,-6.80555 11.45399,-15.58659 11.21094,-26.3418 l -0.18164,-0.54687 H 959.3125 c 0,4.31424 -1.03168,7.62652 -3.09766,9.93555 -2.06597,2.24826 -5.19596,3.37109 -9.38867,3.37109 -6.07639,0 -10.30013,-2.33876 -12.66992,-7.01758 -2.30903,-4.67882 -3.46289,-11.15017 -3.46289,-19.41406 v -2.0957 c 0,-8.0816 1.15386,-14.49284 3.46289,-19.23243 2.36979,-4.80034 6.53342,-7.20117 12.48828,-7.20117 4.19271,0 7.35178,1.48937 9.47852,4.4668 2.12673,2.91667 3.18945,6.71376 3.18945,11.39258 h 28.07422 l 0.18164,-0.54688 c 0.24305,-12.09201 -3.40278,-21.60026 -10.9375,-28.52734 -7.47396,-6.98785 -17.46897,-10.48242 -29.98633,-10.48242 -14.94792,0 -26.46332,4.64843 -34.54492,13.94531 -8.0816,9.29688 -12.12305,21.35916 -12.12305,36.18555 v 2.0957 c 0,14.88715 4.04145,26.97852 12.12305,36.27539 4.37352,4.96101 9.74703,8.57675 16.10156,10.87305 h -42.35156 v -97.55274 h -30.89844 v 97.55274 H 834.80859 V 513.81055 h -30.89843 v 141.11914 h -37.49414 c 5.12403,-2.21111 9.39445,-5.64521 12.79296,-10.32617 6.44098,-8.87153 9.66211,-20.81164 9.66211,-35.82032 v -1.91406 c 0,-15.61632 -3.25217,-28.07226 -9.7539,-37.36914 -6.44097,-9.29688 -16.01129,-13.94531 -28.71094,-13.94531 -4.73958,0 -8.93229,1.0026 -12.57813,3.00781 -3.58506,1.94444 -6.74414,4.73893 -9.47851,8.38477 v -53.13672 h -30.80664 v 141.11914 h -17.04492 v -97.55274 h -30.80664 v 71.36719 c -1.76216,1.82292 -3.88954,3.1901 -6.38086,4.10156 -2.49132,0.91146 -5.37696,1.36719 -8.65821,1.36719 -4.13194,0 -7.20182,-1.4273 -9.20703,-4.2832 -1.94444,-2.85591 -2.91601,-8.14236 -2.91601,-15.85938 v -56.69336 h -30.7168 v 56.51172 c 0,15.00868 2.88759,26.09744 8.66016,33.26758 2.76734,3.40153 6.03318,5.9856 9.78515,7.77344 h -54.33203 c 5.06929,-2.22544 9.38048,-5.68865 12.91797,-10.41602 6.68403,-8.99305 10.02734,-20.90408 10.02734,-35.73047 v -1.91406 c 0,-15.37326 -3.37239,-27.7691 -10.11718,-37.1875 -6.68403,-9.4184 -16.13412,-14.12695 -28.34766,-14.12695 -4.92188,0 -9.29687,1.09375 -13.125,3.28125 -3.76736,2.1875 -7.01758,5.28646 -9.75195,9.29687 l -0.91211,-10.75586 h -29.07422 v 97.55274 H 82.103516 c -24.664532,0 -43.929688,-19.27299 -43.929688,-43.9375 V 463.70898 c 0,-18.09785 10.379385,-33.27608 25.646484,-40.08203 v 16.03711 h 13.761719 v 45.39063 c 0,11.72743 2.61415,20.29514 7.839844,25.70312 5.286458,5.40799 13.002821,8.11328 23.150395,8.11328 3.40277,0 6.35047,-0.18229 8.84179,-0.54687 2.49132,-0.30382 5.28581,-0.8507 8.38477,-1.64063 l -2.09571,-22.78711 c -1.45833,0.36459 -2.67426,0.60699 -3.64648,0.72852 -0.91146,0.12153 -2.15647,0.18359 -3.73633,0.18359 -2.43055,0 -4.37565,-0.7602 -5.83398,-2.27929 -1.39757,-1.57986 -2.09571,-4.13195 -2.09571,-7.65625 v -45.20899 h 15.58594 z m 44.13282,0 h 10.51171 c -0.45068,0.31658 -0.89215,0.65495 -1.32421,1.01758 -3.40278,2.8559 -6.13716,6.86631 -8.20313,12.03124 z m 158.6289,0 h 29.97266 l -12.70899,56.52539 -2.00586,10.57422 -0.54687,-0.0918 -1.82227,-10.48242 z m 199.55469,0 h 27.16211 v 69.92382 c -1.76215,1.82292 -3.88954,3.19011 -6.38086,4.10157 -2.49132,0.91146 -5.37695,1.36719 -8.6582,1.36719 -4.13195,0 -7.19987,-1.42731 -9.20508,-4.28321 -1.94445,-2.8559 -2.91797,-8.14236 -2.91797,-15.85937 z m 102.58984,0 h 23.84961 l -11.86914,27.63281 h -0.54687 z m -384.95898,55.1582 h 12.39648 v 13.03516 c -1.15451,2.43055 -3.19075,4.52691 -6.10742,6.28906 -2.8559,1.76215 -6.16819,2.64258 -9.93555,2.64258 -3.03819,0 -5.52821,-0.85135 -7.47265,-2.55274 -1.88368,-1.76215 -2.82617,-4.0408 -2.82617,-6.83594 0,-3.64583 1.09375,-6.65364 3.28125,-9.02343 2.1875,-2.36979 5.74218,-3.55469 10.66406,-3.55469 z m 192.13476,0 h 12.39649 v 13.03516 c -1.15452,2.43055 -3.19076,4.52691 -6.10742,6.28906 -2.85591,1.76215 -6.16624,2.64258 -9.9336,2.64258 -3.03819,0 -5.53016,-0.85135 -7.47461,-2.55274 -1.88368,-1.76215 -2.82617,-4.0408 -2.82617,-6.83594 0,-3.64583 1.09375,-6.65364 3.28125,-9.02343 2.1875,-2.36979 5.74219,-3.55469 10.66406,-3.55469 z m 418.89258,38.87305 V 534.5 h 30.89844 v -20.68945 z m -322.10937,65.4414 c 5.34722,0 9.23546,2.52301 11.66601,7.56641 2.43056,5.0434 3.64649,11.72613 3.64649,20.05078 v 1.91406 c 0,8.02084 -1.1849,14.28082 -3.55469,18.77735 -2.30903,4.43576 -6.16819,6.65234 -11.57617,6.65234 -3.52431,0 -6.50109,-0.51584 -8.93164,-1.54883 -2.36979,-1.03298 -4.28386,-2.6135 -5.74219,-4.74023 v -41.19727 c 1.39757,-2.43055 3.2806,-4.2845 5.65039,-5.56054 2.43056,-1.27605 5.37826,-1.91407 8.8418,-1.91407 z m 209.81836,0 c 5.95486,0 10.02539,2.43186 12.21289,7.29297 2.1875,4.80035 3.28125,11.57422 3.28125,20.32422 v 1.91406 c 0,8.50695 -1.03364,14.88716 -3.09961,19.14063 -2.06597,4.19271 -6.1365,6.28906 -12.21289,6.28906 -3.40278,0 -6.31945,-0.51584 -8.75,-1.54883 -2.36979,-1.03298 -4.28386,-2.58246 -5.74219,-4.64844 v -41.4707 c 1.39757,-2.36979 3.2806,-4.16363 5.65039,-5.3789 2.43056,-1.27605 5.31814,-1.91407 8.66016,-1.91407 z m -90.69141,61.98047 3.46875,13.69727 h -17.25586 c 0.81632,-0.39894 1.61931,-0.82332 2.39453,-1.30274 4.67882,-2.91666 8.47591,-7.04731 11.39258,-12.39453 z m 74.28516,3.18946 c 2.8559,4.375 6.28841,7.71636 10.29882,10.02539 0.29781,0.17146 0.60694,0.32369 0.91211,0.48242 h -12.86718 z m -207.9043,2.82617 c 2.61725,3.31518 5.65708,5.86954 9.10937,7.68164 h -9.10937 z"
       transform="scale(0.26458333)"
       id="rect1036"
       inkscape:connector-curvature="0" />
  </g>
  <g
     inkscape:groupmode="layer"
     id="layer7"
     inkscape:label="gravure"
     sodipodi:insensitive="true">
    <path
       style="color:#000000;font-style:normal;font-variant:normal;font-weight:normal;font-stretch:normal;font-size:medium;line-height:normal;font-family:sans-serif;font-variant-ligatures:normal;font-variant-position:normal;font-variant-caps:normal;font-variant-numeric:normal;font-variant-alternates:normal;font-feature-settings:normal;text-indent:0;text-align:start;text-decoration:none;text-decoration-line:none;text-decoration-style:solid;text-decoration-color:#000000;letter-spacing:normal;word-spacing:normal;text-transform:none;writing-mode:lr-tb;direction:ltr;text-orientation:mixed;dominant-baseline:auto;baseline-shift:baseline;text-anchor:start;white-space:normal;shape-padding:0;clip-rule:nonzero;display:inline;overflow:visible;visibility:visible;opacity:1;isolation:auto;mix-blend-mode:normal;color-interpolation:sRGB;color-interpolation-filters:linearRGB;solid-color:#000000;solid-opacity:1;vector-effect:none;fill:none;fill-opacity:1;fill-rule:nonzero;stroke:#0000ff;stroke-width:0.75590551;stroke-linecap:butt;stroke-linejoin:round;stroke-miterlimit:4;stroke-dasharray:none;stroke-dashoffset:0;stroke-opacity:1;color-rendering:auto;image-rendering:auto;shape-rendering:auto;text-rendering:auto;enable-background:accumulate"
       d="m 487.54297,654.92969 v 37.79492 h 30.80664 v -37.79492 m 9.10937,0 c 0.1545,0.0811 0.30477,0.16996 0.46094,0.24804 3.7066,1.82292 7.93034,2.73438 12.66992,2.73438 5.72098,0 10.82689,-1.00294 15.33594,-2.98242 m 54.33203,0 c 4.15688,1.98077 8.91186,2.98242 14.27735,2.98242 5.05636,0 9.59994,-1.00487 13.64648,-2.98242 m 17.25586,0 0.26953,1.06836 h 24.79102 v -1.06836 m 17.04492,0 v 1.06836 h 26.88672 l 0.16797,-1.06836 m 12.86718,0 c 3.80451,1.97883 8.17485,2.98242 13.125,2.98242 5.97011,0 11.23897,-1.00297 15.82618,-2.98242 m 37.49414,0 v 1.06836 h 30.89843 v -1.06836 m 20.14258,0 v 1.06836 h 30.89844 v -1.06836 m 42.35156,0 c 5.47595,1.9788 11.67797,2.98242 18.625,2.98242 6.52307,0 12.39776,-0.99975 17.63477,-2.98242 m 54.40236,0 c 5.6188,1.98193 12.0441,2.98242 19.291,2.98242 7.6252,0 14.3574,-0.99984 20.2109,-2.98242"
       transform="scale(0.26458333)"
       id="rect1076"
       inkscape:connector-curvature="0"
       sodipodi:nodetypes="ccccccsccsccccccccccsccccccccccsccsc" />
    <path
       style="font-style:normal;font-variant:normal;font-weight:normal;font-stretch:normal;font-size:50.79999924px;line-height:1.25;font-family:Roboto;-inkscape-font-specification:Roboto;letter-spacing:0px;word-spacing:0px;display:inline;fill:none;fill-opacity:1;stroke:#0000ff;stroke-width:0.75590551;stroke-miterlimit:4;stroke-dasharray:none;stroke-opacity:1"
       d="m 123.97656,419.7793 v -1.44336 H 108.39062 V 393.81836 H 77.582031 v 24.51758 H 63.820312 v 5.29101 m 132.382808,-3.84765 0.23438,-2.17188 c -1.21528,-0.36458 -2.37109,-0.63802 -3.46484,-0.82031 -1.09375,-0.18229 -2.33876,-0.27344 -3.73633,-0.27344 -3.97863,0 -7.51655,1.08894 -10.61524,3.26563 m 86.87696,0 c -5.62869,-2.17092 -12.08643,-3.26563 -19.38672,-3.26563 -7.77279,0 -14.63665,1.09453 -20.60742,3.26563 m 232.13086,0 c -5.62887,-2.17111 -12.08806,-3.26563 -19.38868,-3.26563 -7.77278,0 -14.63665,1.09453 -20.60742,3.26563 m -249.52929,0 L 168,418.33594 h -28.98438 v 1.44336 m 187.72266,0 -0.32812,-1.44336 h -32.44727 l 0.46875,1.44336 m 94.49219,0 0.46875,-1.44336 h -32.35742 l -0.32422,1.44336 m 169.58203,0 v -1.44336 h -30.71485 v 1.44336 m 88.6836,0 v -1.44336 h -30.80664 v 1.44336 m 75.42773,0 -0.59765,-1.44336 h -34.36133 l 0.84961,1.44336 m 92.27344,0 0.84765,-1.44336 h -34.54297 l -0.61914,1.44336"
       transform="scale(0.26458333)"
       id="text1080"
       inkscape:connector-curvature="0"
       sodipodi:nodetypes="ccccccccccssccsccsccccccccccccccccccccccccccccc" />
  </g>
</svg>
